<mxfile host="app.diagrams.net" modified="2022-12-23T15:14:44.518Z" agent="5.0 (Macintosh; Intel Mac OS X 10_15_7) AppleWebKit/537.36 (KHTML, like Gecko) Chrome/108.0.0.0 Safari/537.36" etag="FBsga3p9FTu-lCro_CoJ" version="20.5.3" type="github">
  <diagram id="uPZdVVibbiMtuvsRwJ2P" name="Страница 1">
    <mxGraphModel dx="996" dy="620" grid="1" gridSize="10" guides="1" tooltips="1" connect="1" arrows="1" fold="1" page="1" pageScale="1" pageWidth="2339" pageHeight="3300" math="0" shadow="0">
      <root>
        <mxCell id="0" />
        <mxCell id="1" parent="0" />
        <mxCell id="e8nvUrUcDjRh6I55UbsG-1" value="" style="endArrow=none;html=1;rounded=0;" edge="1" parent="1">
          <mxGeometry width="50" height="50" relative="1" as="geometry">
            <mxPoint x="80" y="160" as="sourcePoint" />
            <mxPoint x="440" y="160" as="targetPoint" />
          </mxGeometry>
        </mxCell>
        <mxCell id="e8nvUrUcDjRh6I55UbsG-2" value="" style="endArrow=none;html=1;rounded=0;" edge="1" parent="1">
          <mxGeometry width="50" height="50" relative="1" as="geometry">
            <mxPoint x="440" y="160" as="sourcePoint" />
            <mxPoint x="460" y="140" as="targetPoint" />
          </mxGeometry>
        </mxCell>
        <mxCell id="e8nvUrUcDjRh6I55UbsG-3" value="" style="endArrow=none;html=1;rounded=0;" edge="1" parent="1">
          <mxGeometry width="50" height="50" relative="1" as="geometry">
            <mxPoint x="440" y="440" as="sourcePoint" />
            <mxPoint x="440" y="160" as="targetPoint" />
          </mxGeometry>
        </mxCell>
        <mxCell id="e8nvUrUcDjRh6I55UbsG-4" value="" style="endArrow=none;html=1;rounded=0;" edge="1" parent="1">
          <mxGeometry width="50" height="50" relative="1" as="geometry">
            <mxPoint x="80" y="440" as="sourcePoint" />
            <mxPoint x="440" y="440" as="targetPoint" />
          </mxGeometry>
        </mxCell>
        <mxCell id="e8nvUrUcDjRh6I55UbsG-5" value="" style="endArrow=none;html=1;rounded=0;" edge="1" parent="1">
          <mxGeometry width="50" height="50" relative="1" as="geometry">
            <mxPoint x="440" y="440" as="sourcePoint" />
            <mxPoint x="460" y="460" as="targetPoint" />
          </mxGeometry>
        </mxCell>
        <mxCell id="e8nvUrUcDjRh6I55UbsG-6" value="" style="endArrow=none;html=1;rounded=0;" edge="1" parent="1">
          <mxGeometry width="50" height="50" relative="1" as="geometry">
            <mxPoint x="460" y="460" as="sourcePoint" />
            <mxPoint x="460" y="140" as="targetPoint" />
          </mxGeometry>
        </mxCell>
        <mxCell id="e8nvUrUcDjRh6I55UbsG-7" value="" style="endArrow=none;html=1;rounded=0;" edge="1" parent="1">
          <mxGeometry width="50" height="50" relative="1" as="geometry">
            <mxPoint x="480" y="140" as="sourcePoint" />
            <mxPoint x="460" y="140" as="targetPoint" />
          </mxGeometry>
        </mxCell>
        <mxCell id="e8nvUrUcDjRh6I55UbsG-8" value="" style="endArrow=none;html=1;rounded=0;" edge="1" parent="1">
          <mxGeometry width="50" height="50" relative="1" as="geometry">
            <mxPoint x="460" y="460" as="sourcePoint" />
            <mxPoint x="480" y="460" as="targetPoint" />
          </mxGeometry>
        </mxCell>
        <mxCell id="e8nvUrUcDjRh6I55UbsG-9" value="" style="endArrow=none;html=1;rounded=0;" edge="1" parent="1">
          <mxGeometry width="50" height="50" relative="1" as="geometry">
            <mxPoint x="480" y="460" as="sourcePoint" />
            <mxPoint x="480" y="140" as="targetPoint" />
          </mxGeometry>
        </mxCell>
        <mxCell id="e8nvUrUcDjRh6I55UbsG-10" value="" style="endArrow=none;html=1;rounded=0;" edge="1" parent="1">
          <mxGeometry width="50" height="50" relative="1" as="geometry">
            <mxPoint x="540" y="60" as="sourcePoint" />
            <mxPoint x="480" y="140" as="targetPoint" />
          </mxGeometry>
        </mxCell>
        <mxCell id="e8nvUrUcDjRh6I55UbsG-11" value="" style="endArrow=none;html=1;rounded=0;" edge="1" parent="1">
          <mxGeometry width="50" height="50" relative="1" as="geometry">
            <mxPoint x="540" y="540" as="sourcePoint" />
            <mxPoint x="480" y="460" as="targetPoint" />
          </mxGeometry>
        </mxCell>
        <mxCell id="e8nvUrUcDjRh6I55UbsG-12" value="" style="endArrow=none;html=1;rounded=0;" edge="1" parent="1">
          <mxGeometry width="50" height="50" relative="1" as="geometry">
            <mxPoint x="80" y="160" as="sourcePoint" />
            <mxPoint x="80" y="440" as="targetPoint" />
          </mxGeometry>
        </mxCell>
        <mxCell id="e8nvUrUcDjRh6I55UbsG-13" value="" style="endArrow=none;html=1;rounded=0;" edge="1" parent="1">
          <mxGeometry width="50" height="50" relative="1" as="geometry">
            <mxPoint x="80" y="160" as="sourcePoint" />
            <mxPoint y="70" as="targetPoint" />
          </mxGeometry>
        </mxCell>
        <mxCell id="e8nvUrUcDjRh6I55UbsG-14" value="" style="endArrow=none;html=1;rounded=0;" edge="1" parent="1">
          <mxGeometry width="50" height="50" relative="1" as="geometry">
            <mxPoint x="80" y="440" as="sourcePoint" />
            <mxPoint y="540" as="targetPoint" />
          </mxGeometry>
        </mxCell>
        <mxCell id="e8nvUrUcDjRh6I55UbsG-15" value="2860" style="text;html=1;resizable=0;autosize=1;align=center;verticalAlign=middle;points=[];fillColor=none;strokeColor=none;rounded=0;" vertex="1" parent="1">
          <mxGeometry x="235" y="170" width="50" height="30" as="geometry" />
        </mxCell>
        <mxCell id="e8nvUrUcDjRh6I55UbsG-19" value="" style="endArrow=none;dashed=1;html=1;dashPattern=1 3;strokeWidth=2;rounded=0;" edge="1" parent="1">
          <mxGeometry width="50" height="50" relative="1" as="geometry">
            <mxPoint x="60" y="140" as="sourcePoint" />
            <mxPoint x="480" y="140" as="targetPoint" />
          </mxGeometry>
        </mxCell>
        <mxCell id="e8nvUrUcDjRh6I55UbsG-21" value="3040" style="text;html=1;resizable=0;autosize=1;align=center;verticalAlign=middle;points=[];fillColor=none;strokeColor=none;rounded=0;" vertex="1" parent="1">
          <mxGeometry x="235" y="100" width="50" height="30" as="geometry" />
        </mxCell>
        <mxCell id="e8nvUrUcDjRh6I55UbsG-22" value="" style="endArrow=classic;startArrow=classic;html=1;rounded=0;" edge="1" parent="1">
          <mxGeometry width="50" height="50" relative="1" as="geometry">
            <mxPoint x="50" y="130" as="sourcePoint" />
            <mxPoint x="480" y="130" as="targetPoint" />
          </mxGeometry>
        </mxCell>
        <mxCell id="e8nvUrUcDjRh6I55UbsG-23" value="" style="endArrow=classic;startArrow=classic;html=1;rounded=0;" edge="1" parent="1">
          <mxGeometry width="50" height="50" relative="1" as="geometry">
            <mxPoint x="80" y="170" as="sourcePoint" />
            <mxPoint x="440" y="170" as="targetPoint" />
          </mxGeometry>
        </mxCell>
        <mxCell id="e8nvUrUcDjRh6I55UbsG-24" value="185" style="text;html=1;resizable=0;autosize=1;align=center;verticalAlign=middle;points=[];fillColor=none;strokeColor=none;rounded=0;" vertex="1" parent="1">
          <mxGeometry x="450" y="150" width="40" height="30" as="geometry" />
        </mxCell>
        <mxCell id="e8nvUrUcDjRh6I55UbsG-25" value="230" style="text;html=1;resizable=0;autosize=1;align=center;verticalAlign=middle;points=[];fillColor=none;strokeColor=none;rounded=0;" vertex="1" parent="1">
          <mxGeometry x="430" y="250" width="40" height="30" as="geometry" />
        </mxCell>
        <mxCell id="e8nvUrUcDjRh6I55UbsG-26" value="" style="endArrow=none;html=1;rounded=0;" edge="1" parent="1">
          <mxGeometry width="50" height="50" relative="1" as="geometry">
            <mxPoint x="540" y="60" as="sourcePoint" />
            <mxPoint x="540" y="550" as="targetPoint" />
          </mxGeometry>
        </mxCell>
        <mxCell id="e8nvUrUcDjRh6I55UbsG-27" value="" style="endArrow=none;html=1;rounded=0;strokeColor=#0000FF;strokeWidth=2;" edge="1" parent="1">
          <mxGeometry width="50" height="50" relative="1" as="geometry">
            <mxPoint x="420" y="340" as="sourcePoint" />
            <mxPoint x="420" y="290" as="targetPoint" />
            <Array as="points">
              <mxPoint x="420" y="320" />
            </Array>
          </mxGeometry>
        </mxCell>
        <mxCell id="e8nvUrUcDjRh6I55UbsG-28" value="" style="endArrow=none;html=1;rounded=0;strokeColor=#0000FF;strokeWidth=2;" edge="1" parent="1">
          <mxGeometry width="50" height="50" relative="1" as="geometry">
            <mxPoint x="430" y="350" as="sourcePoint" />
            <mxPoint x="430" y="300" as="targetPoint" />
            <Array as="points">
              <mxPoint x="430" y="330" />
            </Array>
          </mxGeometry>
        </mxCell>
        <mxCell id="e8nvUrUcDjRh6I55UbsG-29" value="" style="endArrow=none;html=1;rounded=0;strokeColor=#0000FF;strokeWidth=2;" edge="1" parent="1">
          <mxGeometry width="50" height="50" relative="1" as="geometry">
            <mxPoint x="370" y="340" as="sourcePoint" />
            <mxPoint x="420" y="290" as="targetPoint" />
          </mxGeometry>
        </mxCell>
        <mxCell id="e8nvUrUcDjRh6I55UbsG-80" value="" style="endArrow=none;html=1;rounded=0;" edge="1" parent="1">
          <mxGeometry width="50" height="50" relative="1" as="geometry">
            <mxPoint x="1120" y="321.0000000000002" as="sourcePoint" />
            <mxPoint x="1480" y="321.0000000000002" as="targetPoint" />
          </mxGeometry>
        </mxCell>
        <mxCell id="e8nvUrUcDjRh6I55UbsG-81" value="" style="endArrow=none;html=1;rounded=0;strokeColor=#0000FF;strokeWidth=2;" edge="1" parent="1">
          <mxGeometry width="50" height="50" relative="1" as="geometry">
            <mxPoint x="1480" y="321.0000000000002" as="sourcePoint" />
            <mxPoint x="1530" y="270" as="targetPoint" />
          </mxGeometry>
        </mxCell>
        <mxCell id="e8nvUrUcDjRh6I55UbsG-82" value="" style="endArrow=none;html=1;rounded=0;strokeWidth=2;strokeColor=#0000FF;" edge="1" parent="1">
          <mxGeometry width="50" height="50" relative="1" as="geometry">
            <mxPoint x="1480" y="601" as="sourcePoint" />
            <mxPoint x="1480" y="321.0000000000002" as="targetPoint" />
          </mxGeometry>
        </mxCell>
        <mxCell id="e8nvUrUcDjRh6I55UbsG-83" value="" style="endArrow=none;html=1;rounded=0;strokeWidth=0.5;strokeColor=#0000FF;" edge="1" parent="1">
          <mxGeometry width="50" height="50" relative="1" as="geometry">
            <mxPoint x="1120" y="601" as="sourcePoint" />
            <mxPoint x="1480" y="601" as="targetPoint" />
          </mxGeometry>
        </mxCell>
        <mxCell id="e8nvUrUcDjRh6I55UbsG-84" value="" style="endArrow=none;html=1;rounded=0;strokeWidth=2;strokeColor=#0000FF;" edge="1" parent="1">
          <mxGeometry width="50" height="50" relative="1" as="geometry">
            <mxPoint x="1480" y="601" as="sourcePoint" />
            <mxPoint x="1530" y="650" as="targetPoint" />
          </mxGeometry>
        </mxCell>
        <mxCell id="e8nvUrUcDjRh6I55UbsG-85" value="" style="endArrow=none;html=1;rounded=0;strokeWidth=2;strokeColor=#0000FF;" edge="1" parent="1">
          <mxGeometry width="50" height="50" relative="1" as="geometry">
            <mxPoint x="1500" y="621" as="sourcePoint" />
            <mxPoint x="1500" y="301.0000000000002" as="targetPoint" />
          </mxGeometry>
        </mxCell>
        <mxCell id="e8nvUrUcDjRh6I55UbsG-86" value="" style="endArrow=none;html=1;rounded=0;strokeWidth=2;strokeColor=#0000FF;" edge="1" parent="1">
          <mxGeometry width="50" height="50" relative="1" as="geometry">
            <mxPoint x="1520" y="301.0000000000002" as="sourcePoint" />
            <mxPoint x="1500" y="301.0000000000002" as="targetPoint" />
          </mxGeometry>
        </mxCell>
        <mxCell id="e8nvUrUcDjRh6I55UbsG-87" value="" style="endArrow=none;html=1;rounded=0;strokeWidth=2;strokeColor=#0000FF;" edge="1" parent="1">
          <mxGeometry width="50" height="50" relative="1" as="geometry">
            <mxPoint x="1500" y="621" as="sourcePoint" />
            <mxPoint x="1520" y="621" as="targetPoint" />
          </mxGeometry>
        </mxCell>
        <mxCell id="e8nvUrUcDjRh6I55UbsG-88" value="" style="endArrow=none;html=1;rounded=0;strokeWidth=2;strokeColor=#0000FF;" edge="1" parent="1">
          <mxGeometry width="50" height="50" relative="1" as="geometry">
            <mxPoint x="1520" y="621" as="sourcePoint" />
            <mxPoint x="1520" y="301.0000000000002" as="targetPoint" />
          </mxGeometry>
        </mxCell>
        <mxCell id="e8nvUrUcDjRh6I55UbsG-89" value="" style="endArrow=none;html=1;rounded=0;strokeWidth=2;strokeColor=#0000FF;" edge="1" parent="1">
          <mxGeometry width="50" height="50" relative="1" as="geometry">
            <mxPoint x="1600" y="220" as="sourcePoint" />
            <mxPoint x="1520" y="301.0000000000002" as="targetPoint" />
          </mxGeometry>
        </mxCell>
        <mxCell id="e8nvUrUcDjRh6I55UbsG-90" value="" style="endArrow=none;html=1;rounded=0;strokeWidth=2;strokeColor=#0000FF;" edge="1" parent="1">
          <mxGeometry width="50" height="50" relative="1" as="geometry">
            <mxPoint x="1600" y="700" as="sourcePoint" />
            <mxPoint x="1520" y="621" as="targetPoint" />
          </mxGeometry>
        </mxCell>
        <mxCell id="e8nvUrUcDjRh6I55UbsG-91" value="" style="endArrow=none;html=1;rounded=0;strokeWidth=2;strokeColor=#0000FF;" edge="1" parent="1">
          <mxGeometry width="50" height="50" relative="1" as="geometry">
            <mxPoint x="1120" y="321.0000000000002" as="sourcePoint" />
            <mxPoint x="1120" y="601" as="targetPoint" />
          </mxGeometry>
        </mxCell>
        <mxCell id="e8nvUrUcDjRh6I55UbsG-92" value="" style="endArrow=none;html=1;rounded=0;" edge="1" parent="1">
          <mxGeometry width="50" height="50" relative="1" as="geometry">
            <mxPoint x="1120" y="321.0000000000002" as="sourcePoint" />
            <mxPoint x="1030" y="230" as="targetPoint" />
          </mxGeometry>
        </mxCell>
        <mxCell id="e8nvUrUcDjRh6I55UbsG-93" value="" style="endArrow=none;html=1;rounded=0;" edge="1" parent="1">
          <mxGeometry width="50" height="50" relative="1" as="geometry">
            <mxPoint x="1120" y="601" as="sourcePoint" />
            <mxPoint x="1030" y="690" as="targetPoint" />
          </mxGeometry>
        </mxCell>
        <mxCell id="e8nvUrUcDjRh6I55UbsG-102" value="" style="endArrow=none;html=1;rounded=0;strokeColor=#0000FF;strokeWidth=2;" edge="1" parent="1">
          <mxGeometry width="50" height="50" relative="1" as="geometry">
            <mxPoint x="1440" y="170" as="sourcePoint" />
            <mxPoint x="1440" y="120" as="targetPoint" />
            <Array as="points">
              <mxPoint x="1440" y="150" />
            </Array>
          </mxGeometry>
        </mxCell>
        <mxCell id="e8nvUrUcDjRh6I55UbsG-104" value="" style="endArrow=none;html=1;rounded=0;strokeColor=#0000FF;strokeWidth=2;" edge="1" parent="1">
          <mxGeometry width="50" height="50" relative="1" as="geometry">
            <mxPoint x="1120" y="320" as="sourcePoint" />
            <mxPoint x="1480" y="320" as="targetPoint" />
          </mxGeometry>
        </mxCell>
        <mxCell id="e8nvUrUcDjRh6I55UbsG-105" value="сетка &lt;br&gt;318 мм ширина &lt;br&gt;400 мм высота&amp;nbsp;" style="whiteSpace=wrap;html=1;" vertex="1" parent="1">
          <mxGeometry x="990" y="85" width="120" height="60" as="geometry" />
        </mxCell>
        <mxCell id="e8nvUrUcDjRh6I55UbsG-106" value="" style="endArrow=none;html=1;rounded=0;strokeColor=#0000FF;strokeWidth=2;" edge="1" parent="1">
          <mxGeometry width="50" height="50" relative="1" as="geometry">
            <mxPoint x="750" y="570" as="sourcePoint" />
            <mxPoint x="800" y="520" as="targetPoint" />
          </mxGeometry>
        </mxCell>
        <mxCell id="e8nvUrUcDjRh6I55UbsG-107" value="" style="endArrow=classic;startArrow=classic;html=1;rounded=0;strokeColor=#000000;strokeWidth=1;" edge="1" parent="1">
          <mxGeometry width="50" height="50" relative="1" as="geometry">
            <mxPoint x="1060" y="650" as="sourcePoint" />
            <mxPoint x="1060" y="600" as="targetPoint" />
          </mxGeometry>
        </mxCell>
        <mxCell id="e8nvUrUcDjRh6I55UbsG-108" value="" style="endArrow=none;html=1;rounded=0;strokeColor=#0000FF;strokeWidth=2;startArrow=none;" edge="1" parent="1" source="e8nvUrUcDjRh6I55UbsG-179">
          <mxGeometry width="50" height="50" relative="1" as="geometry">
            <mxPoint x="1070" y="270" as="sourcePoint" />
            <mxPoint x="1120" y="320" as="targetPoint" />
          </mxGeometry>
        </mxCell>
        <mxCell id="e8nvUrUcDjRh6I55UbsG-109" value="855" style="text;html=1;align=center;verticalAlign=middle;resizable=0;points=[];autosize=1;strokeColor=none;fillColor=none;" vertex="1" parent="1">
          <mxGeometry x="1110" y="240" width="40" height="30" as="geometry" />
        </mxCell>
        <mxCell id="e8nvUrUcDjRh6I55UbsG-110" value="" style="endArrow=classic;startArrow=classic;html=1;rounded=0;strokeColor=#000000;strokeWidth=1;" edge="1" parent="1">
          <mxGeometry width="50" height="50" relative="1" as="geometry">
            <mxPoint x="1070" y="260" as="sourcePoint" />
            <mxPoint x="1210" y="260" as="targetPoint" />
          </mxGeometry>
        </mxCell>
        <mxCell id="e8nvUrUcDjRh6I55UbsG-111" value="400" style="text;html=1;align=center;verticalAlign=middle;resizable=0;points=[];autosize=1;strokeColor=none;fillColor=none;rotation=45;" vertex="1" parent="1">
          <mxGeometry x="1070" y="300" width="40" height="30" as="geometry" />
        </mxCell>
        <mxCell id="e8nvUrUcDjRh6I55UbsG-113" value="" style="endArrow=none;html=1;rounded=0;strokeColor=#0000FF;strokeWidth=2;" edge="1" parent="1">
          <mxGeometry width="50" height="50" relative="1" as="geometry">
            <mxPoint x="1070" y="270" as="sourcePoint" />
            <mxPoint x="1070" y="650" as="targetPoint" />
          </mxGeometry>
        </mxCell>
        <mxCell id="e8nvUrUcDjRh6I55UbsG-115" value="" style="endArrow=none;html=1;rounded=0;strokeColor=#0000FF;strokeWidth=2;" edge="1" parent="1">
          <mxGeometry width="50" height="50" relative="1" as="geometry">
            <mxPoint x="1070" y="650" as="sourcePoint" />
            <mxPoint x="1550" y="650" as="targetPoint" />
          </mxGeometry>
        </mxCell>
        <mxCell id="e8nvUrUcDjRh6I55UbsG-116" value="" style="endArrow=none;html=1;rounded=0;strokeColor=#0000FF;strokeWidth=2;" edge="1" parent="1">
          <mxGeometry width="50" height="50" relative="1" as="geometry">
            <mxPoint x="1550" y="270" as="sourcePoint" />
            <mxPoint x="1550" y="650" as="targetPoint" />
          </mxGeometry>
        </mxCell>
        <mxCell id="e8nvUrUcDjRh6I55UbsG-117" value="" style="endArrow=none;html=1;rounded=0;strokeColor=#0000FF;strokeWidth=2;" edge="1" parent="1">
          <mxGeometry width="50" height="50" relative="1" as="geometry">
            <mxPoint x="1070" y="270" as="sourcePoint" />
            <mxPoint x="1550" y="270" as="targetPoint" />
          </mxGeometry>
        </mxCell>
        <mxCell id="e8nvUrUcDjRh6I55UbsG-119" value="" style="endArrow=none;html=1;rounded=0;strokeWidth=2;strokeColor=#0000FF;" edge="1" parent="1">
          <mxGeometry width="50" height="50" relative="1" as="geometry">
            <mxPoint x="1530" y="650" as="sourcePoint" />
            <mxPoint x="1530" y="270" as="targetPoint" />
          </mxGeometry>
        </mxCell>
        <mxCell id="e8nvUrUcDjRh6I55UbsG-120" value="" style="endArrow=none;html=1;rounded=0;strokeColor=#0000FF;strokeWidth=2;" edge="1" parent="1">
          <mxGeometry width="50" height="50" relative="1" as="geometry">
            <mxPoint x="1070" y="650" as="sourcePoint" />
            <mxPoint x="1120" y="600" as="targetPoint" />
          </mxGeometry>
        </mxCell>
        <mxCell id="e8nvUrUcDjRh6I55UbsG-121" value="" style="endArrow=none;html=1;rounded=0;strokeColor=#0000FF;strokeWidth=2;" edge="1" parent="1">
          <mxGeometry width="50" height="50" relative="1" as="geometry">
            <mxPoint x="1480" y="550" as="sourcePoint" />
            <mxPoint x="1120" y="550" as="targetPoint" />
          </mxGeometry>
        </mxCell>
        <mxCell id="e8nvUrUcDjRh6I55UbsG-122" value="" style="endArrow=none;html=1;rounded=0;strokeColor=#0000FF;strokeWidth=2;" edge="1" parent="1">
          <mxGeometry width="50" height="50" relative="1" as="geometry">
            <mxPoint x="1070" y="600" as="sourcePoint" />
            <mxPoint x="1120" y="550" as="targetPoint" />
          </mxGeometry>
        </mxCell>
        <mxCell id="e8nvUrUcDjRh6I55UbsG-123" value="" style="endArrow=none;html=1;rounded=0;strokeWidth=2;strokeColor=#0000FF;" edge="1" parent="1">
          <mxGeometry width="50" height="50" relative="1" as="geometry">
            <mxPoint x="1480" y="550" as="sourcePoint" />
            <mxPoint x="1530" y="600" as="targetPoint" />
          </mxGeometry>
        </mxCell>
        <mxCell id="e8nvUrUcDjRh6I55UbsG-124" value="" style="endArrow=none;html=1;rounded=0;strokeColor=#0000FF;strokeWidth=2;" edge="1" parent="1">
          <mxGeometry width="50" height="50" relative="1" as="geometry">
            <mxPoint x="1070" y="600" as="sourcePoint" />
            <mxPoint x="1530" y="600" as="targetPoint" />
          </mxGeometry>
        </mxCell>
        <mxCell id="e8nvUrUcDjRh6I55UbsG-125" value="" style="endArrow=none;html=1;rounded=0;strokeColor=#0000FF;strokeWidth=2;" edge="1" parent="1">
          <mxGeometry width="50" height="50" relative="1" as="geometry">
            <mxPoint x="1230" y="600" as="sourcePoint" />
            <mxPoint x="1230" y="320" as="targetPoint" />
          </mxGeometry>
        </mxCell>
        <mxCell id="e8nvUrUcDjRh6I55UbsG-126" value="" style="endArrow=none;html=1;rounded=0;strokeColor=#0000FF;strokeWidth=2;" edge="1" parent="1">
          <mxGeometry width="50" height="50" relative="1" as="geometry">
            <mxPoint x="1210" y="650" as="sourcePoint" />
            <mxPoint x="1210" y="270" as="targetPoint" />
          </mxGeometry>
        </mxCell>
        <mxCell id="e8nvUrUcDjRh6I55UbsG-127" value="" style="endArrow=none;html=1;rounded=0;strokeColor=#0000FF;strokeWidth=2;" edge="1" parent="1">
          <mxGeometry width="50" height="50" relative="1" as="geometry">
            <mxPoint x="1210" y="650" as="sourcePoint" />
            <mxPoint x="1230" y="600" as="targetPoint" />
          </mxGeometry>
        </mxCell>
        <mxCell id="e8nvUrUcDjRh6I55UbsG-129" value="" style="endArrow=none;html=1;rounded=0;strokeColor=#0000FF;strokeWidth=2;" edge="1" parent="1">
          <mxGeometry width="50" height="50" relative="1" as="geometry">
            <mxPoint x="1210" y="270" as="sourcePoint" />
            <mxPoint x="1230" y="320" as="targetPoint" />
          </mxGeometry>
        </mxCell>
        <mxCell id="e8nvUrUcDjRh6I55UbsG-130" value="" style="endArrow=none;html=1;rounded=0;strokeColor=#FF0000;strokeWidth=2;" edge="1" parent="1">
          <mxGeometry width="50" height="50" relative="1" as="geometry">
            <mxPoint x="1210" y="600" as="sourcePoint" />
            <mxPoint x="1210" y="310" as="targetPoint" />
          </mxGeometry>
        </mxCell>
        <mxCell id="e8nvUrUcDjRh6I55UbsG-131" value="500" style="text;html=1;align=center;verticalAlign=middle;resizable=0;points=[];autosize=1;strokeColor=none;fillColor=none;rotation=-90;" vertex="1" parent="1">
          <mxGeometry x="1030" y="610" width="40" height="30" as="geometry" />
        </mxCell>
        <mxCell id="e8nvUrUcDjRh6I55UbsG-132" value="" style="endArrow=classic;startArrow=classic;html=1;rounded=0;strokeColor=#000000;strokeWidth=1;" edge="1" parent="1">
          <mxGeometry width="50" height="50" relative="1" as="geometry">
            <mxPoint x="1030" y="600" as="sourcePoint" />
            <mxPoint x="1030" y="270" as="targetPoint" />
          </mxGeometry>
        </mxCell>
        <mxCell id="e8nvUrUcDjRh6I55UbsG-133" value="2300" style="text;html=1;align=center;verticalAlign=middle;resizable=0;points=[];autosize=1;strokeColor=none;fillColor=none;rotation=-90;" vertex="1" parent="1">
          <mxGeometry x="1000" y="410" width="50" height="30" as="geometry" />
        </mxCell>
        <mxCell id="e8nvUrUcDjRh6I55UbsG-134" value="" style="endArrow=classic;startArrow=classic;html=1;rounded=0;strokeColor=#000000;strokeWidth=1;" edge="1" parent="1">
          <mxGeometry width="50" height="50" relative="1" as="geometry">
            <mxPoint x="1120" y="330" as="sourcePoint" />
            <mxPoint x="1070" y="280" as="targetPoint" />
          </mxGeometry>
        </mxCell>
        <mxCell id="e8nvUrUcDjRh6I55UbsG-135" value="" style="endArrow=classic;startArrow=classic;html=1;rounded=0;strokeColor=#000000;strokeWidth=1;" edge="1" parent="1">
          <mxGeometry width="50" height="50" relative="1" as="geometry">
            <mxPoint x="1210" y="260" as="sourcePoint" />
            <mxPoint x="1530" y="260" as="targetPoint" />
          </mxGeometry>
        </mxCell>
        <mxCell id="e8nvUrUcDjRh6I55UbsG-136" value="2000&lt;br&gt;" style="text;html=1;align=center;verticalAlign=middle;resizable=0;points=[];autosize=1;strokeColor=none;fillColor=none;" vertex="1" parent="1">
          <mxGeometry x="1340" y="240" width="50" height="30" as="geometry" />
        </mxCell>
        <mxCell id="e8nvUrUcDjRh6I55UbsG-137" value="" style="endArrow=classic;startArrow=classic;html=1;rounded=0;strokeColor=#000000;strokeWidth=1;entryX=0.748;entryY=1.009;entryDx=0;entryDy=0;entryPerimeter=0;" edge="1" parent="1" target="e8nvUrUcDjRh6I55UbsG-138">
          <mxGeometry width="50" height="50" relative="1" as="geometry">
            <mxPoint x="1530" y="260" as="sourcePoint" />
            <mxPoint x="1560" y="260" as="targetPoint" />
          </mxGeometry>
        </mxCell>
        <mxCell id="e8nvUrUcDjRh6I55UbsG-138" value="185" style="text;html=1;align=center;verticalAlign=middle;resizable=0;points=[];autosize=1;strokeColor=none;fillColor=none;" vertex="1" parent="1">
          <mxGeometry x="1520" y="230" width="40" height="30" as="geometry" />
        </mxCell>
        <mxCell id="e8nvUrUcDjRh6I55UbsG-139" value="" style="endArrow=none;html=1;rounded=0;strokeColor=#0000FF;strokeWidth=2;" edge="1" parent="1">
          <mxGeometry width="50" height="50" relative="1" as="geometry">
            <mxPoint x="1120" y="350" as="sourcePoint" />
            <mxPoint x="1070" y="310" as="targetPoint" />
          </mxGeometry>
        </mxCell>
        <mxCell id="e8nvUrUcDjRh6I55UbsG-140" value="" style="endArrow=none;html=1;rounded=0;strokeColor=#0000FF;strokeWidth=2;" edge="1" parent="1">
          <mxGeometry width="50" height="50" relative="1" as="geometry">
            <mxPoint x="1230" y="350" as="sourcePoint" />
            <mxPoint x="1210" y="310" as="targetPoint" />
          </mxGeometry>
        </mxCell>
        <mxCell id="e8nvUrUcDjRh6I55UbsG-142" value="" style="endArrow=none;html=1;rounded=0;strokeColor=#0000FF;strokeWidth=2;" edge="1" parent="1">
          <mxGeometry width="50" height="50" relative="1" as="geometry">
            <mxPoint x="1070" y="310" as="sourcePoint" />
            <mxPoint x="1210" y="310" as="targetPoint" />
          </mxGeometry>
        </mxCell>
        <mxCell id="e8nvUrUcDjRh6I55UbsG-144" value="" style="endArrow=none;html=1;rounded=0;dashed=1;strokeColor=#00FF00;strokeWidth=2;" edge="1" parent="1">
          <mxGeometry width="50" height="50" relative="1" as="geometry">
            <mxPoint x="1070" y="280" as="sourcePoint" />
            <mxPoint x="1550" y="280" as="targetPoint" />
          </mxGeometry>
        </mxCell>
        <mxCell id="e8nvUrUcDjRh6I55UbsG-145" value="" style="endArrow=none;html=1;rounded=0;strokeColor=#FF0000;strokeWidth=2;" edge="1" parent="1">
          <mxGeometry width="50" height="50" relative="1" as="geometry">
            <mxPoint x="1530" y="310" as="sourcePoint" />
            <mxPoint x="1210" y="310" as="targetPoint" />
          </mxGeometry>
        </mxCell>
        <mxCell id="e8nvUrUcDjRh6I55UbsG-146" value="" style="endArrow=none;html=1;rounded=0;strokeColor=#FF0000;strokeWidth=2;" edge="1" parent="1">
          <mxGeometry width="50" height="50" relative="1" as="geometry">
            <mxPoint x="1210" y="596" as="sourcePoint" />
            <mxPoint x="1530" y="596" as="targetPoint" />
          </mxGeometry>
        </mxCell>
        <mxCell id="e8nvUrUcDjRh6I55UbsG-147" value="" style="endArrow=none;html=1;rounded=0;strokeColor=#FF0000;strokeWidth=2;" edge="1" parent="1">
          <mxGeometry width="50" height="50" relative="1" as="geometry">
            <mxPoint x="1530" y="310" as="sourcePoint" />
            <mxPoint x="1530" y="600" as="targetPoint" />
          </mxGeometry>
        </mxCell>
        <mxCell id="e8nvUrUcDjRh6I55UbsG-148" value="" style="endArrow=none;html=1;rounded=0;strokeColor=#FF0000;strokeWidth=1;" edge="1" parent="1">
          <mxGeometry width="50" height="50" relative="1" as="geometry">
            <mxPoint x="1210" y="310" as="sourcePoint" />
            <mxPoint x="1180" y="250" as="targetPoint" />
          </mxGeometry>
        </mxCell>
        <mxCell id="e8nvUrUcDjRh6I55UbsG-149" value="" style="endArrow=none;html=1;rounded=0;strokeColor=#FF0000;strokeWidth=1;" edge="1" parent="1">
          <mxGeometry width="50" height="50" relative="1" as="geometry">
            <mxPoint x="1530" y="310" as="sourcePoint" />
            <mxPoint x="1590" y="250" as="targetPoint" />
          </mxGeometry>
        </mxCell>
        <mxCell id="e8nvUrUcDjRh6I55UbsG-150" value="" style="endArrow=none;html=1;rounded=0;strokeColor=#FF0000;strokeWidth=1;" edge="1" parent="1">
          <mxGeometry width="50" height="50" relative="1" as="geometry">
            <mxPoint x="1590" y="250" as="sourcePoint" />
            <mxPoint x="1180" y="250" as="targetPoint" />
          </mxGeometry>
        </mxCell>
        <mxCell id="e8nvUrUcDjRh6I55UbsG-151" value="" style="endArrow=none;html=1;rounded=0;strokeColor=#FF0000;strokeWidth=1;" edge="1" parent="1">
          <mxGeometry width="50" height="50" relative="1" as="geometry">
            <mxPoint x="1210" y="600" as="sourcePoint" />
            <mxPoint x="1180" y="250" as="targetPoint" />
          </mxGeometry>
        </mxCell>
        <mxCell id="e8nvUrUcDjRh6I55UbsG-153" value="" style="endArrow=none;html=1;rounded=0;strokeColor=#FF0000;strokeWidth=1;" edge="1" parent="1">
          <mxGeometry width="50" height="50" relative="1" as="geometry">
            <mxPoint x="1590" y="250" as="sourcePoint" />
            <mxPoint x="1530" y="600" as="targetPoint" />
          </mxGeometry>
        </mxCell>
        <mxCell id="e8nvUrUcDjRh6I55UbsG-154" value="" style="endArrow=none;html=1;rounded=0;strokeColor=#FF0000;strokeWidth=1;" edge="1" parent="1">
          <mxGeometry width="50" height="50" relative="1" as="geometry">
            <mxPoint x="1210" y="400" as="sourcePoint" />
            <mxPoint x="1180" y="250" as="targetPoint" />
          </mxGeometry>
        </mxCell>
        <mxCell id="e8nvUrUcDjRh6I55UbsG-155" value="" style="endArrow=none;html=1;rounded=0;strokeColor=#FF0000;strokeWidth=1;" edge="1" parent="1">
          <mxGeometry width="50" height="50" relative="1" as="geometry">
            <mxPoint x="1530" y="400" as="sourcePoint" />
            <mxPoint x="1590" y="250" as="targetPoint" />
          </mxGeometry>
        </mxCell>
        <mxCell id="e8nvUrUcDjRh6I55UbsG-157" value="" style="endArrow=none;html=1;rounded=0;strokeColor=#0000FF;strokeWidth=2;" edge="1" parent="1">
          <mxGeometry width="50" height="50" relative="1" as="geometry">
            <mxPoint x="1210" y="600" as="sourcePoint" />
            <mxPoint x="1230" y="550" as="targetPoint" />
          </mxGeometry>
        </mxCell>
        <mxCell id="e8nvUrUcDjRh6I55UbsG-158" value="" style="endArrow=none;html=1;rounded=0;strokeColor=#0000FF;strokeWidth=2;" edge="1" parent="1">
          <mxGeometry width="50" height="50" relative="1" as="geometry">
            <mxPoint x="1550" y="310" as="sourcePoint" />
            <mxPoint x="1530" y="310" as="targetPoint" />
          </mxGeometry>
        </mxCell>
        <mxCell id="e8nvUrUcDjRh6I55UbsG-159" value="" style="endArrow=none;html=1;rounded=0;strokeColor=#0000FF;strokeWidth=2;" edge="1" parent="1">
          <mxGeometry width="50" height="50" relative="1" as="geometry">
            <mxPoint x="1480" y="350" as="sourcePoint" />
            <mxPoint x="1530" y="310" as="targetPoint" />
          </mxGeometry>
        </mxCell>
        <mxCell id="e8nvUrUcDjRh6I55UbsG-161" value="" style="endArrow=none;html=1;rounded=0;strokeColor=#0000FF;strokeWidth=2;" edge="1" parent="1">
          <mxGeometry width="50" height="50" relative="1" as="geometry">
            <mxPoint x="1120" y="350" as="sourcePoint" />
            <mxPoint x="1230" y="350" as="targetPoint" />
          </mxGeometry>
        </mxCell>
        <mxCell id="e8nvUrUcDjRh6I55UbsG-162" value="" style="endArrow=none;html=1;rounded=0;strokeColor=#0000FF;strokeWidth=2;" edge="1" parent="1">
          <mxGeometry width="50" height="50" relative="1" as="geometry">
            <mxPoint x="1480" y="350" as="sourcePoint" />
            <mxPoint x="1230" y="350" as="targetPoint" />
          </mxGeometry>
        </mxCell>
        <mxCell id="e8nvUrUcDjRh6I55UbsG-163" value="" style="endArrow=none;html=1;rounded=0;strokeColor=#0000FF;strokeWidth=2;" edge="1" parent="1">
          <mxGeometry width="50" height="50" relative="1" as="geometry">
            <mxPoint x="1550" y="600" as="sourcePoint" />
            <mxPoint x="1530" y="600" as="targetPoint" />
          </mxGeometry>
        </mxCell>
        <mxCell id="e8nvUrUcDjRh6I55UbsG-164" value="" style="endArrow=none;html=1;rounded=0;strokeColor=#0000FF;strokeWidth=2;" edge="1" parent="1">
          <mxGeometry width="50" height="50" relative="1" as="geometry">
            <mxPoint x="1520" y="570" as="sourcePoint" />
            <mxPoint x="1550" y="600" as="targetPoint" />
          </mxGeometry>
        </mxCell>
        <mxCell id="e8nvUrUcDjRh6I55UbsG-165" value="" style="endArrow=none;html=1;rounded=0;strokeColor=#0000FF;strokeWidth=2;" edge="1" parent="1">
          <mxGeometry width="50" height="50" relative="1" as="geometry">
            <mxPoint x="1520" y="570" as="sourcePoint" />
            <mxPoint x="1500" y="570" as="targetPoint" />
          </mxGeometry>
        </mxCell>
        <mxCell id="e8nvUrUcDjRh6I55UbsG-166" value="" style="endArrow=none;html=1;rounded=0;strokeColor=#0000FF;strokeWidth=2;anchorPointDirection=1;movable=1;bendable=1;deletable=1;fixDash=0;" edge="1" parent="1">
          <mxGeometry width="50" height="50" relative="1" as="geometry">
            <mxPoint x="1520" y="335" as="sourcePoint" />
            <mxPoint x="1500" y="335" as="targetPoint" />
          </mxGeometry>
        </mxCell>
        <mxCell id="e8nvUrUcDjRh6I55UbsG-168" value="" style="endArrow=none;html=1;rounded=0;strokeColor=#0000FF;strokeWidth=2;" edge="1" parent="1">
          <mxGeometry width="50" height="50" relative="1" as="geometry">
            <mxPoint x="1520" y="335" as="sourcePoint" />
            <mxPoint x="1550" y="310" as="targetPoint" />
          </mxGeometry>
        </mxCell>
        <mxCell id="e8nvUrUcDjRh6I55UbsG-169" value="" style="endArrow=classic;startArrow=classic;html=1;rounded=0;strokeColor=#000000;strokeWidth=1;" edge="1" parent="1">
          <mxGeometry width="50" height="50" relative="1" as="geometry">
            <mxPoint x="1040" y="600" as="sourcePoint" />
            <mxPoint x="1040" y="310" as="targetPoint" />
          </mxGeometry>
        </mxCell>
        <mxCell id="e8nvUrUcDjRh6I55UbsG-170" value="2000" style="text;html=1;align=center;verticalAlign=middle;resizable=0;points=[];autosize=1;strokeColor=none;fillColor=none;rotation=-90;" vertex="1" parent="1">
          <mxGeometry x="1010" y="430" width="50" height="30" as="geometry" />
        </mxCell>
        <mxCell id="e8nvUrUcDjRh6I55UbsG-171" value="" style="endArrow=none;html=1;rounded=0;strokeColor=#000000;strokeWidth=0.5;" edge="1" parent="1">
          <mxGeometry width="50" height="50" relative="1" as="geometry">
            <mxPoint x="1030" y="270" as="sourcePoint" />
            <mxPoint x="1070" y="270" as="targetPoint" />
          </mxGeometry>
        </mxCell>
        <mxCell id="e8nvUrUcDjRh6I55UbsG-172" value="" style="endArrow=none;html=1;rounded=0;strokeColor=#000000;strokeWidth=0.5;" edge="1" parent="1">
          <mxGeometry width="50" height="50" relative="1" as="geometry">
            <mxPoint x="1040" y="310" as="sourcePoint" />
            <mxPoint x="1070" y="310" as="targetPoint" />
          </mxGeometry>
        </mxCell>
        <mxCell id="e8nvUrUcDjRh6I55UbsG-173" value="" style="endArrow=none;html=1;rounded=0;strokeColor=#000000;strokeWidth=0.5;" edge="1" parent="1">
          <mxGeometry width="50" height="50" relative="1" as="geometry">
            <mxPoint x="1030" y="600" as="sourcePoint" />
            <mxPoint x="1070" y="600" as="targetPoint" />
          </mxGeometry>
        </mxCell>
        <mxCell id="e8nvUrUcDjRh6I55UbsG-174" value="" style="endArrow=none;html=1;rounded=0;strokeColor=#000000;strokeWidth=0.5;" edge="1" parent="1">
          <mxGeometry width="50" height="50" relative="1" as="geometry">
            <mxPoint x="1060" y="650" as="sourcePoint" />
            <mxPoint x="1070" y="650" as="targetPoint" />
          </mxGeometry>
        </mxCell>
        <mxCell id="e8nvUrUcDjRh6I55UbsG-175" value="" style="endArrow=none;html=1;rounded=0;strokeColor=#000000;strokeWidth=0.5;" edge="1" parent="1">
          <mxGeometry width="50" height="50" relative="1" as="geometry">
            <mxPoint x="1070" y="260" as="sourcePoint" />
            <mxPoint x="1070" y="270" as="targetPoint" />
          </mxGeometry>
        </mxCell>
        <mxCell id="e8nvUrUcDjRh6I55UbsG-176" value="" style="endArrow=none;html=1;rounded=0;strokeColor=#000000;strokeWidth=0.5;" edge="1" parent="1">
          <mxGeometry width="50" height="50" relative="1" as="geometry">
            <mxPoint x="1210" y="260" as="sourcePoint" />
            <mxPoint x="1210" y="270" as="targetPoint" />
          </mxGeometry>
        </mxCell>
        <mxCell id="e8nvUrUcDjRh6I55UbsG-177" value="" style="endArrow=none;html=1;rounded=0;strokeColor=#000000;strokeWidth=0.5;exitX=0.25;exitY=1.003;exitDx=0;exitDy=0;exitPerimeter=0;" edge="1" parent="1" source="e8nvUrUcDjRh6I55UbsG-138">
          <mxGeometry width="50" height="50" relative="1" as="geometry">
            <mxPoint x="1220" y="270" as="sourcePoint" />
            <mxPoint x="1530" y="270" as="targetPoint" />
          </mxGeometry>
        </mxCell>
        <mxCell id="e8nvUrUcDjRh6I55UbsG-178" value="" style="endArrow=none;html=1;rounded=0;strokeColor=#000000;strokeWidth=0.5;exitX=0.75;exitY=1.009;exitDx=0;exitDy=0;exitPerimeter=0;" edge="1" parent="1" source="e8nvUrUcDjRh6I55UbsG-138">
          <mxGeometry width="50" height="50" relative="1" as="geometry">
            <mxPoint x="1540" y="270.09000000000003" as="sourcePoint" />
            <mxPoint x="1550" y="270" as="targetPoint" />
          </mxGeometry>
        </mxCell>
        <mxCell id="e8nvUrUcDjRh6I55UbsG-179" value="" style="rounded=0;whiteSpace=wrap;html=1;fillColor=#80FF00;strokeColor=#80FF00;opacity=30;strokeWidth=0;" vertex="1" parent="1">
          <mxGeometry x="1070" y="270" width="140" height="40" as="geometry" />
        </mxCell>
        <mxCell id="e8nvUrUcDjRh6I55UbsG-180" value="" style="endArrow=none;html=1;rounded=0;strokeColor=#0000FF;strokeWidth=2;" edge="1" parent="1" target="e8nvUrUcDjRh6I55UbsG-179">
          <mxGeometry width="50" height="50" relative="1" as="geometry">
            <mxPoint x="1069.9999999999998" y="270" as="sourcePoint" />
            <mxPoint x="1119.9999999999998" y="320" as="targetPoint" />
          </mxGeometry>
        </mxCell>
        <mxCell id="e8nvUrUcDjRh6I55UbsG-181" value="" style="rounded=0;whiteSpace=wrap;html=1;fillColor=#80FF00;strokeColor=#80FF00;opacity=30;strokeWidth=0;" vertex="1" parent="1">
          <mxGeometry x="1210" y="270" width="340" height="40" as="geometry" />
        </mxCell>
        <mxCell id="e8nvUrUcDjRh6I55UbsG-182" value="" style="rounded=0;whiteSpace=wrap;html=1;fillColor=#80FF00;strokeColor=#80FF00;opacity=30;strokeWidth=0;" vertex="1" parent="1">
          <mxGeometry x="1070" y="600" width="480" height="50" as="geometry" />
        </mxCell>
        <mxCell id="e8nvUrUcDjRh6I55UbsG-192" value="" style="endArrow=none;html=1;rounded=0;strokeColor=#FF0080;strokeWidth=2;" edge="1" parent="1">
          <mxGeometry width="50" height="50" relative="1" as="geometry">
            <mxPoint x="1070" y="322" as="sourcePoint" />
            <mxPoint x="1210" y="322" as="targetPoint" />
          </mxGeometry>
        </mxCell>
        <mxCell id="e8nvUrUcDjRh6I55UbsG-193" value="" style="endArrow=none;html=1;rounded=0;strokeColor=#FF0080;strokeWidth=2;" edge="1" parent="1">
          <mxGeometry width="50" height="50" relative="1" as="geometry">
            <mxPoint x="1120" y="361" as="sourcePoint" />
            <mxPoint x="1230" y="361" as="targetPoint" />
          </mxGeometry>
        </mxCell>
        <mxCell id="e8nvUrUcDjRh6I55UbsG-198" value="" style="endArrow=none;html=1;rounded=0;strokeColor=#FF0080;strokeWidth=2;" edge="1" parent="1">
          <mxGeometry width="50" height="50" relative="1" as="geometry">
            <mxPoint x="1230" y="510" as="sourcePoint" />
            <mxPoint x="1210" y="550" as="targetPoint" />
          </mxGeometry>
        </mxCell>
        <mxCell id="e8nvUrUcDjRh6I55UbsG-199" value="" style="endArrow=none;html=1;rounded=0;strokeColor=#FF0080;strokeWidth=2;" edge="1" parent="1">
          <mxGeometry width="50" height="50" relative="1" as="geometry">
            <mxPoint x="1230" y="470" as="sourcePoint" />
            <mxPoint x="1210" y="490" as="targetPoint" />
          </mxGeometry>
        </mxCell>
        <mxCell id="e8nvUrUcDjRh6I55UbsG-200" value="" style="endArrow=none;html=1;rounded=0;strokeColor=#FF0080;strokeWidth=2;" edge="1" parent="1">
          <mxGeometry width="50" height="50" relative="1" as="geometry">
            <mxPoint x="1229.9999999999998" y="430" as="sourcePoint" />
            <mxPoint x="1210" y="430" as="targetPoint" />
          </mxGeometry>
        </mxCell>
        <mxCell id="e8nvUrUcDjRh6I55UbsG-201" value="" style="endArrow=none;html=1;rounded=0;strokeColor=#FF0080;strokeWidth=2;" edge="1" parent="1">
          <mxGeometry width="50" height="50" relative="1" as="geometry">
            <mxPoint x="1229.9999999999998" y="390" as="sourcePoint" />
            <mxPoint x="1210" y="360" as="targetPoint" />
          </mxGeometry>
        </mxCell>
        <mxCell id="e8nvUrUcDjRh6I55UbsG-202" value="" style="endArrow=none;html=1;rounded=0;strokeColor=#FF0080;strokeWidth=2;" edge="1" parent="1">
          <mxGeometry width="50" height="50" relative="1" as="geometry">
            <mxPoint x="1120" y="510" as="sourcePoint" />
            <mxPoint x="1070" y="550" as="targetPoint" />
          </mxGeometry>
        </mxCell>
        <mxCell id="e8nvUrUcDjRh6I55UbsG-203" value="" style="endArrow=none;html=1;rounded=0;strokeColor=#FF0080;strokeWidth=2;" edge="1" parent="1">
          <mxGeometry width="50" height="50" relative="1" as="geometry">
            <mxPoint x="1120" y="470" as="sourcePoint" />
            <mxPoint x="1070" y="490" as="targetPoint" />
          </mxGeometry>
        </mxCell>
        <mxCell id="e8nvUrUcDjRh6I55UbsG-204" value="" style="endArrow=none;html=1;rounded=0;strokeColor=#FF0080;strokeWidth=2;" edge="1" parent="1">
          <mxGeometry width="50" height="50" relative="1" as="geometry">
            <mxPoint x="1120" y="430" as="sourcePoint" />
            <mxPoint x="1070" y="430" as="targetPoint" />
          </mxGeometry>
        </mxCell>
        <mxCell id="e8nvUrUcDjRh6I55UbsG-205" value="" style="endArrow=none;html=1;rounded=0;strokeColor=#FF0080;strokeWidth=2;" edge="1" parent="1">
          <mxGeometry width="50" height="50" relative="1" as="geometry">
            <mxPoint x="1120" y="390" as="sourcePoint" />
            <mxPoint x="1070" y="360" as="targetPoint" />
          </mxGeometry>
        </mxCell>
        <mxCell id="e8nvUrUcDjRh6I55UbsG-206" value="" style="endArrow=none;html=1;rounded=0;strokeColor=#FF0080;strokeWidth=2;" edge="1" parent="1">
          <mxGeometry width="50" height="50" relative="1" as="geometry">
            <mxPoint x="1500" y="520" as="sourcePoint" />
            <mxPoint x="1530" y="550" as="targetPoint" />
          </mxGeometry>
        </mxCell>
        <mxCell id="e8nvUrUcDjRh6I55UbsG-207" value="" style="endArrow=none;html=1;rounded=0;strokeColor=#FF0080;strokeWidth=2;" edge="1" parent="1">
          <mxGeometry width="50" height="50" relative="1" as="geometry">
            <mxPoint x="1500" y="470" as="sourcePoint" />
            <mxPoint x="1530" y="490" as="targetPoint" />
          </mxGeometry>
        </mxCell>
        <mxCell id="e8nvUrUcDjRh6I55UbsG-208" value="" style="endArrow=none;html=1;rounded=0;strokeColor=#FF0080;strokeWidth=2;" edge="1" parent="1">
          <mxGeometry width="50" height="50" relative="1" as="geometry">
            <mxPoint x="1500" y="380" as="sourcePoint" />
            <mxPoint x="1530" y="370" as="targetPoint" />
          </mxGeometry>
        </mxCell>
        <mxCell id="e8nvUrUcDjRh6I55UbsG-209" value="" style="endArrow=none;html=1;rounded=0;strokeColor=#FF0080;strokeWidth=2;" edge="1" parent="1">
          <mxGeometry width="50" height="50" relative="1" as="geometry">
            <mxPoint x="1500" y="420" as="sourcePoint" />
            <mxPoint x="1530" y="420" as="targetPoint" />
          </mxGeometry>
        </mxCell>
        <mxCell id="e8nvUrUcDjRh6I55UbsG-213" value="" style="endArrow=none;html=1;rounded=0;strokeColor=#FF0000;strokeWidth=2;" edge="1" parent="1">
          <mxGeometry width="50" height="50" relative="1" as="geometry">
            <mxPoint x="1680" y="610" as="sourcePoint" />
            <mxPoint x="1680" y="320" as="targetPoint" />
          </mxGeometry>
        </mxCell>
        <mxCell id="e8nvUrUcDjRh6I55UbsG-214" value="" style="endArrow=none;html=1;rounded=0;strokeColor=#FF0000;strokeWidth=2;" edge="1" parent="1">
          <mxGeometry width="50" height="50" relative="1" as="geometry">
            <mxPoint x="2000" y="320" as="sourcePoint" />
            <mxPoint x="1680" y="320" as="targetPoint" />
          </mxGeometry>
        </mxCell>
        <mxCell id="e8nvUrUcDjRh6I55UbsG-215" value="" style="endArrow=none;html=1;rounded=0;strokeColor=#FF0000;strokeWidth=2;" edge="1" parent="1">
          <mxGeometry width="50" height="50" relative="1" as="geometry">
            <mxPoint x="1680" y="606" as="sourcePoint" />
            <mxPoint x="2000" y="606" as="targetPoint" />
          </mxGeometry>
        </mxCell>
        <mxCell id="e8nvUrUcDjRh6I55UbsG-216" value="" style="endArrow=none;html=1;rounded=0;strokeColor=#FF0000;strokeWidth=2;" edge="1" parent="1">
          <mxGeometry width="50" height="50" relative="1" as="geometry">
            <mxPoint x="2000" y="320" as="sourcePoint" />
            <mxPoint x="2000" y="610" as="targetPoint" />
          </mxGeometry>
        </mxCell>
        <mxCell id="e8nvUrUcDjRh6I55UbsG-217" value="" style="endArrow=none;html=1;rounded=0;strokeColor=#FF0000;strokeWidth=2;" edge="1" parent="1">
          <mxGeometry width="50" height="50" relative="1" as="geometry">
            <mxPoint x="1680" y="360" as="sourcePoint" />
            <mxPoint x="2000" y="360" as="targetPoint" />
          </mxGeometry>
        </mxCell>
        <mxCell id="e8nvUrUcDjRh6I55UbsG-218" value="" style="endArrow=none;html=1;rounded=0;strokeColor=#FF0000;strokeWidth=2;" edge="1" parent="1">
          <mxGeometry width="50" height="50" relative="1" as="geometry">
            <mxPoint x="1680" y="400" as="sourcePoint" />
            <mxPoint x="2000" y="400" as="targetPoint" />
          </mxGeometry>
        </mxCell>
        <mxCell id="e8nvUrUcDjRh6I55UbsG-219" value="" style="endArrow=none;html=1;rounded=0;strokeColor=#FF0000;strokeWidth=2;" edge="1" parent="1">
          <mxGeometry width="50" height="50" relative="1" as="geometry">
            <mxPoint x="1680" y="440" as="sourcePoint" />
            <mxPoint x="2000" y="440" as="targetPoint" />
          </mxGeometry>
        </mxCell>
        <mxCell id="e8nvUrUcDjRh6I55UbsG-220" value="" style="endArrow=none;html=1;rounded=0;strokeColor=#FF0000;strokeWidth=2;" edge="1" parent="1">
          <mxGeometry width="50" height="50" relative="1" as="geometry">
            <mxPoint x="1680" y="480" as="sourcePoint" />
            <mxPoint x="2000" y="480" as="targetPoint" />
          </mxGeometry>
        </mxCell>
        <mxCell id="e8nvUrUcDjRh6I55UbsG-221" value="" style="endArrow=none;html=1;rounded=0;strokeColor=#FF0000;strokeWidth=2;" edge="1" parent="1">
          <mxGeometry width="50" height="50" relative="1" as="geometry">
            <mxPoint x="1680" y="520" as="sourcePoint" />
            <mxPoint x="2000" y="520" as="targetPoint" />
          </mxGeometry>
        </mxCell>
        <mxCell id="e8nvUrUcDjRh6I55UbsG-222" value="" style="endArrow=none;html=1;rounded=0;strokeColor=#FF0000;strokeWidth=2;" edge="1" parent="1">
          <mxGeometry width="50" height="50" relative="1" as="geometry">
            <mxPoint x="1680" y="560" as="sourcePoint" />
            <mxPoint x="2000" y="560" as="targetPoint" />
          </mxGeometry>
        </mxCell>
        <mxCell id="e8nvUrUcDjRh6I55UbsG-223" value="" style="endArrow=none;html=1;rounded=0;strokeColor=#FF0000;strokeWidth=2;" edge="1" parent="1">
          <mxGeometry width="50" height="50" relative="1" as="geometry">
            <mxPoint x="1840" y="320" as="sourcePoint" />
            <mxPoint x="1840" y="610" as="targetPoint" />
          </mxGeometry>
        </mxCell>
        <mxCell id="e8nvUrUcDjRh6I55UbsG-227" value="" style="endArrow=none;html=1;rounded=0;strokeColor=#FF0000;strokeWidth=2;" edge="1" parent="1">
          <mxGeometry width="50" height="50" relative="1" as="geometry">
            <mxPoint x="1760" y="320" as="sourcePoint" />
            <mxPoint x="1760" y="610" as="targetPoint" />
          </mxGeometry>
        </mxCell>
        <mxCell id="e8nvUrUcDjRh6I55UbsG-228" value="" style="endArrow=none;html=1;rounded=0;strokeColor=#FF0000;strokeWidth=2;" edge="1" parent="1">
          <mxGeometry width="50" height="50" relative="1" as="geometry">
            <mxPoint x="1920" y="320" as="sourcePoint" />
            <mxPoint x="1920" y="610" as="targetPoint" />
          </mxGeometry>
        </mxCell>
        <mxCell id="e8nvUrUcDjRh6I55UbsG-229" value="" style="endArrow=none;html=1;rounded=0;strokeColor=#FF0000;strokeWidth=1;" edge="1" parent="1">
          <mxGeometry width="50" height="50" relative="1" as="geometry">
            <mxPoint x="1370" y="310" as="sourcePoint" />
            <mxPoint x="1380" y="250" as="targetPoint" />
          </mxGeometry>
        </mxCell>
        <mxCell id="e8nvUrUcDjRh6I55UbsG-230" value="" style="endArrow=none;html=1;rounded=0;strokeColor=#FF0000;strokeWidth=1;entryX=0.5;entryY=0;entryDx=0;entryDy=0;" edge="1" parent="1">
          <mxGeometry width="50" height="50" relative="1" as="geometry">
            <mxPoint x="1370" y="350" as="sourcePoint" />
            <mxPoint x="1375" y="279" as="targetPoint" />
          </mxGeometry>
        </mxCell>
        <mxCell id="e8nvUrUcDjRh6I55UbsG-231" value="" style="endArrow=none;html=1;rounded=0;strokeColor=#FF0000;strokeWidth=2;entryX=0.469;entryY=1;entryDx=0;entryDy=0;entryPerimeter=0;" edge="1" parent="1" target="e8nvUrUcDjRh6I55UbsG-181">
          <mxGeometry width="50" height="50" relative="1" as="geometry">
            <mxPoint x="1369" y="600" as="sourcePoint" />
            <mxPoint x="1530" y="470" as="targetPoint" />
          </mxGeometry>
        </mxCell>
        <mxCell id="e8nvUrUcDjRh6I55UbsG-232" value="" style="endArrow=none;html=1;rounded=0;strokeColor=#0000FF;strokeWidth=1;" edge="1" parent="1">
          <mxGeometry width="50" height="50" relative="1" as="geometry">
            <mxPoint x="1280" y="350" as="sourcePoint" />
            <mxPoint x="1280" y="320" as="targetPoint" />
          </mxGeometry>
        </mxCell>
        <mxCell id="e8nvUrUcDjRh6I55UbsG-233" value="" style="endArrow=none;html=1;rounded=0;strokeColor=#0000FF;strokeWidth=1;" edge="1" parent="1">
          <mxGeometry width="50" height="50" relative="1" as="geometry">
            <mxPoint x="1420" y="350" as="sourcePoint" />
            <mxPoint x="1420" y="320" as="targetPoint" />
          </mxGeometry>
        </mxCell>
        <mxCell id="e8nvUrUcDjRh6I55UbsG-234" value="" style="endArrow=none;html=1;rounded=0;strokeColor=#0000FF;strokeWidth=1;" edge="1" parent="1">
          <mxGeometry width="50" height="50" relative="1" as="geometry">
            <mxPoint x="1350" y="350" as="sourcePoint" />
            <mxPoint x="1350" y="320" as="targetPoint" />
          </mxGeometry>
        </mxCell>
        <mxCell id="e8nvUrUcDjRh6I55UbsG-235" value="" style="endArrow=none;html=1;rounded=0;strokeColor=#0000FF;strokeWidth=1;" edge="1" parent="1">
          <mxGeometry width="50" height="50" relative="1" as="geometry">
            <mxPoint x="1290" y="310" as="sourcePoint" />
            <mxPoint x="1290" y="270" as="targetPoint" />
          </mxGeometry>
        </mxCell>
        <mxCell id="e8nvUrUcDjRh6I55UbsG-236" value="" style="endArrow=none;html=1;rounded=0;strokeColor=#0000FF;strokeWidth=1;" edge="1" parent="1">
          <mxGeometry width="50" height="50" relative="1" as="geometry">
            <mxPoint x="1370" y="310" as="sourcePoint" />
            <mxPoint x="1370" y="270" as="targetPoint" />
          </mxGeometry>
        </mxCell>
        <mxCell id="e8nvUrUcDjRh6I55UbsG-237" value="" style="endArrow=none;html=1;rounded=0;strokeColor=#0000FF;strokeWidth=1;" edge="1" parent="1">
          <mxGeometry width="50" height="50" relative="1" as="geometry">
            <mxPoint x="1450" y="310" as="sourcePoint" />
            <mxPoint x="1450" y="270" as="targetPoint" />
          </mxGeometry>
        </mxCell>
        <mxCell id="e8nvUrUcDjRh6I55UbsG-238" value="" style="endArrow=none;html=1;rounded=0;strokeColor=#0000FF;strokeWidth=1;exitX=0.75;exitY=0;exitDx=0;exitDy=0;entryX=0.75;entryY=1;entryDx=0;entryDy=0;" edge="1" parent="1">
          <mxGeometry width="50" height="50" relative="1" as="geometry">
            <mxPoint x="1450" y="600" as="sourcePoint" />
            <mxPoint x="1450" y="650" as="targetPoint" />
          </mxGeometry>
        </mxCell>
        <mxCell id="e8nvUrUcDjRh6I55UbsG-239" value="" style="endArrow=none;html=1;rounded=0;strokeColor=#0000FF;strokeWidth=1;exitX=0.75;exitY=0;exitDx=0;exitDy=0;entryX=0.75;entryY=1;entryDx=0;entryDy=0;" edge="1" parent="1">
          <mxGeometry width="50" height="50" relative="1" as="geometry">
            <mxPoint x="1250" y="600" as="sourcePoint" />
            <mxPoint x="1250" y="650" as="targetPoint" />
          </mxGeometry>
        </mxCell>
        <mxCell id="e8nvUrUcDjRh6I55UbsG-240" value="" style="endArrow=none;html=1;rounded=0;strokeColor=#0000FF;strokeWidth=1;exitX=0.75;exitY=0;exitDx=0;exitDy=0;entryX=0.75;entryY=1;entryDx=0;entryDy=0;" edge="1" parent="1">
          <mxGeometry width="50" height="50" relative="1" as="geometry">
            <mxPoint x="1290" y="600" as="sourcePoint" />
            <mxPoint x="1290" y="650" as="targetPoint" />
          </mxGeometry>
        </mxCell>
        <mxCell id="e8nvUrUcDjRh6I55UbsG-241" value="" style="endArrow=none;html=1;rounded=0;strokeColor=#0000FF;strokeWidth=1;exitX=0.75;exitY=0;exitDx=0;exitDy=0;entryX=0.75;entryY=1;entryDx=0;entryDy=0;" edge="1" parent="1">
          <mxGeometry width="50" height="50" relative="1" as="geometry">
            <mxPoint x="1330" y="600" as="sourcePoint" />
            <mxPoint x="1330" y="650" as="targetPoint" />
          </mxGeometry>
        </mxCell>
        <mxCell id="e8nvUrUcDjRh6I55UbsG-242" value="" style="endArrow=none;html=1;rounded=0;strokeColor=#0000FF;strokeWidth=1;exitX=0.75;exitY=0;exitDx=0;exitDy=0;entryX=0.75;entryY=1;entryDx=0;entryDy=0;" edge="1" parent="1">
          <mxGeometry width="50" height="50" relative="1" as="geometry">
            <mxPoint x="1370" y="600" as="sourcePoint" />
            <mxPoint x="1370" y="650" as="targetPoint" />
          </mxGeometry>
        </mxCell>
        <mxCell id="e8nvUrUcDjRh6I55UbsG-243" value="" style="endArrow=none;html=1;rounded=0;strokeColor=#0000FF;strokeWidth=1;exitX=0.75;exitY=0;exitDx=0;exitDy=0;entryX=0.75;entryY=1;entryDx=0;entryDy=0;" edge="1" parent="1">
          <mxGeometry width="50" height="50" relative="1" as="geometry">
            <mxPoint x="1410" y="600" as="sourcePoint" />
            <mxPoint x="1410" y="650" as="targetPoint" />
          </mxGeometry>
        </mxCell>
        <mxCell id="e8nvUrUcDjRh6I55UbsG-244" value="" style="endArrow=none;html=1;rounded=0;strokeColor=#0000FF;strokeWidth=1;exitX=0.75;exitY=0;exitDx=0;exitDy=0;entryX=0.75;entryY=1;entryDx=0;entryDy=0;" edge="1" parent="1">
          <mxGeometry width="50" height="50" relative="1" as="geometry">
            <mxPoint x="1490" y="600" as="sourcePoint" />
            <mxPoint x="1490" y="650" as="targetPoint" />
          </mxGeometry>
        </mxCell>
        <mxCell id="e8nvUrUcDjRh6I55UbsG-245" value="" style="endArrow=none;html=1;rounded=0;strokeColor=#0000FF;strokeWidth=1;exitX=0.75;exitY=0;exitDx=0;exitDy=0;entryX=0.75;entryY=1;entryDx=0;entryDy=0;" edge="1" parent="1">
          <mxGeometry width="50" height="50" relative="1" as="geometry">
            <mxPoint x="1140" y="600" as="sourcePoint" />
            <mxPoint x="1140" y="650" as="targetPoint" />
          </mxGeometry>
        </mxCell>
        <mxCell id="e8nvUrUcDjRh6I55UbsG-246" value="" style="endArrow=none;html=1;rounded=0;strokeColor=#0000FF;strokeWidth=1;exitX=0.75;exitY=0;exitDx=0;exitDy=0;entryX=0.75;entryY=1;entryDx=0;entryDy=0;" edge="1" parent="1">
          <mxGeometry width="50" height="50" relative="1" as="geometry">
            <mxPoint x="1190" y="550" as="sourcePoint" />
            <mxPoint x="1190" y="600" as="targetPoint" />
          </mxGeometry>
        </mxCell>
        <mxCell id="e8nvUrUcDjRh6I55UbsG-247" value="" style="endArrow=none;html=1;rounded=0;strokeColor=#0000FF;strokeWidth=1;exitX=0.75;exitY=0;exitDx=0;exitDy=0;entryX=0.75;entryY=1;entryDx=0;entryDy=0;" edge="1" parent="1">
          <mxGeometry width="50" height="50" relative="1" as="geometry">
            <mxPoint x="1350" y="550" as="sourcePoint" />
            <mxPoint x="1350" y="600" as="targetPoint" />
          </mxGeometry>
        </mxCell>
        <mxCell id="e8nvUrUcDjRh6I55UbsG-249" value="" style="endArrow=classic;startArrow=classic;html=1;rounded=0;strokeColor=#000000;strokeWidth=1;" edge="1" parent="1">
          <mxGeometry width="50" height="50" relative="1" as="geometry">
            <mxPoint x="1040" y="310" as="sourcePoint" />
            <mxPoint x="1040" y="270" as="targetPoint" />
          </mxGeometry>
        </mxCell>
        <mxCell id="e8nvUrUcDjRh6I55UbsG-251" value="300" style="text;html=1;align=center;verticalAlign=middle;resizable=0;points=[];autosize=1;strokeColor=none;fillColor=none;rotation=-90;" vertex="1" parent="1">
          <mxGeometry x="1030" y="275" width="40" height="30" as="geometry" />
        </mxCell>
        <mxCell id="e8nvUrUcDjRh6I55UbsG-253" value="" style="endArrow=none;html=1;rounded=0;strokeColor=#0000FF;strokeWidth=1;entryX=0.469;entryY=0.965;entryDx=0;entryDy=0;entryPerimeter=0;" edge="1" parent="1" target="e8nvUrUcDjRh6I55UbsG-181">
          <mxGeometry width="50" height="50" relative="1" as="geometry">
            <mxPoint x="1350" y="350" as="sourcePoint" />
            <mxPoint x="1330" y="430" as="targetPoint" />
          </mxGeometry>
        </mxCell>
        <mxCell id="e8nvUrUcDjRh6I55UbsG-254" value="" style="endArrow=none;html=1;rounded=0;strokeColor=#0000FF;strokeWidth=1;" edge="1" parent="1">
          <mxGeometry width="50" height="50" relative="1" as="geometry">
            <mxPoint x="1280" y="350" as="sourcePoint" />
            <mxPoint x="1290" y="310" as="targetPoint" />
          </mxGeometry>
        </mxCell>
        <mxCell id="e8nvUrUcDjRh6I55UbsG-255" value="" style="endArrow=none;html=1;rounded=0;strokeColor=#0000FF;strokeWidth=1;entryX=0.704;entryY=1.027;entryDx=0;entryDy=0;entryPerimeter=0;" edge="1" parent="1" target="e8nvUrUcDjRh6I55UbsG-181">
          <mxGeometry width="50" height="50" relative="1" as="geometry">
            <mxPoint x="1420" y="350" as="sourcePoint" />
            <mxPoint x="1300" y="320" as="targetPoint" />
          </mxGeometry>
        </mxCell>
        <mxCell id="e8nvUrUcDjRh6I55UbsG-256" value="" style="endArrow=none;html=1;rounded=0;strokeColor=#FF0080;strokeWidth=2;" edge="1" parent="1">
          <mxGeometry width="50" height="50" relative="1" as="geometry">
            <mxPoint x="1520" y="380" as="sourcePoint" />
            <mxPoint x="1550" y="370" as="targetPoint" />
          </mxGeometry>
        </mxCell>
        <mxCell id="e8nvUrUcDjRh6I55UbsG-257" value="" style="endArrow=none;html=1;rounded=0;strokeColor=#FF0080;strokeWidth=2;" edge="1" parent="1">
          <mxGeometry width="50" height="50" relative="1" as="geometry">
            <mxPoint x="1520" y="420" as="sourcePoint" />
            <mxPoint x="1550" y="420" as="targetPoint" />
          </mxGeometry>
        </mxCell>
        <mxCell id="e8nvUrUcDjRh6I55UbsG-258" value="" style="endArrow=none;html=1;rounded=0;strokeColor=#FF0080;strokeWidth=2;" edge="1" parent="1">
          <mxGeometry width="50" height="50" relative="1" as="geometry">
            <mxPoint x="1520" y="470" as="sourcePoint" />
            <mxPoint x="1550" y="490" as="targetPoint" />
          </mxGeometry>
        </mxCell>
        <mxCell id="e8nvUrUcDjRh6I55UbsG-259" value="" style="endArrow=none;html=1;rounded=0;strokeColor=#FF0080;strokeWidth=2;" edge="1" parent="1">
          <mxGeometry width="50" height="50" relative="1" as="geometry">
            <mxPoint x="1520" y="520.0000000000001" as="sourcePoint" />
            <mxPoint x="1550" y="550" as="targetPoint" />
          </mxGeometry>
        </mxCell>
        <mxCell id="e8nvUrUcDjRh6I55UbsG-260" value="" style="endArrow=none;html=1;rounded=0;" edge="1" parent="1">
          <mxGeometry width="50" height="50" relative="1" as="geometry">
            <mxPoint x="1130" y="891.0000000000002" as="sourcePoint" />
            <mxPoint x="1490" y="891.0000000000002" as="targetPoint" />
          </mxGeometry>
        </mxCell>
        <mxCell id="e8nvUrUcDjRh6I55UbsG-261" value="" style="endArrow=none;html=1;rounded=0;strokeColor=#0000FF;strokeWidth=2;" edge="1" parent="1">
          <mxGeometry width="50" height="50" relative="1" as="geometry">
            <mxPoint x="1490" y="891.0000000000002" as="sourcePoint" />
            <mxPoint x="1540" y="840" as="targetPoint" />
          </mxGeometry>
        </mxCell>
        <mxCell id="e8nvUrUcDjRh6I55UbsG-262" value="" style="endArrow=none;html=1;rounded=0;strokeWidth=2;strokeColor=#0000FF;" edge="1" parent="1">
          <mxGeometry width="50" height="50" relative="1" as="geometry">
            <mxPoint x="1490" y="1171" as="sourcePoint" />
            <mxPoint x="1490" y="891.0000000000002" as="targetPoint" />
          </mxGeometry>
        </mxCell>
        <mxCell id="e8nvUrUcDjRh6I55UbsG-263" value="" style="endArrow=none;html=1;rounded=0;strokeWidth=0.5;strokeColor=#9933FF;" edge="1" parent="1">
          <mxGeometry width="50" height="50" relative="1" as="geometry">
            <mxPoint x="1130" y="1172" as="sourcePoint" />
            <mxPoint x="1490" y="1172" as="targetPoint" />
          </mxGeometry>
        </mxCell>
        <mxCell id="e8nvUrUcDjRh6I55UbsG-264" value="" style="endArrow=none;html=1;rounded=0;strokeWidth=2;strokeColor=#0000FF;" edge="1" parent="1">
          <mxGeometry width="50" height="50" relative="1" as="geometry">
            <mxPoint x="1490" y="1171" as="sourcePoint" />
            <mxPoint x="1540" y="1220" as="targetPoint" />
          </mxGeometry>
        </mxCell>
        <mxCell id="e8nvUrUcDjRh6I55UbsG-265" value="" style="endArrow=none;html=1;rounded=0;strokeWidth=2;strokeColor=#0000FF;" edge="1" parent="1">
          <mxGeometry width="50" height="50" relative="1" as="geometry">
            <mxPoint x="1510" y="1191" as="sourcePoint" />
            <mxPoint x="1510" y="871.0000000000002" as="targetPoint" />
          </mxGeometry>
        </mxCell>
        <mxCell id="e8nvUrUcDjRh6I55UbsG-266" value="" style="endArrow=none;html=1;rounded=0;strokeWidth=2;strokeColor=#0000FF;" edge="1" parent="1">
          <mxGeometry width="50" height="50" relative="1" as="geometry">
            <mxPoint x="1530" y="871.0000000000002" as="sourcePoint" />
            <mxPoint x="1510" y="871.0000000000002" as="targetPoint" />
          </mxGeometry>
        </mxCell>
        <mxCell id="e8nvUrUcDjRh6I55UbsG-267" value="" style="endArrow=none;html=1;rounded=0;strokeWidth=2;strokeColor=#0000FF;" edge="1" parent="1">
          <mxGeometry width="50" height="50" relative="1" as="geometry">
            <mxPoint x="1510" y="1191" as="sourcePoint" />
            <mxPoint x="1530" y="1191" as="targetPoint" />
          </mxGeometry>
        </mxCell>
        <mxCell id="e8nvUrUcDjRh6I55UbsG-268" value="" style="endArrow=none;html=1;rounded=0;strokeWidth=2;strokeColor=#0000FF;" edge="1" parent="1">
          <mxGeometry width="50" height="50" relative="1" as="geometry">
            <mxPoint x="1530" y="1191" as="sourcePoint" />
            <mxPoint x="1530" y="871.0000000000002" as="targetPoint" />
          </mxGeometry>
        </mxCell>
        <mxCell id="e8nvUrUcDjRh6I55UbsG-269" value="" style="endArrow=none;html=1;rounded=0;strokeWidth=2;strokeColor=#0000FF;" edge="1" parent="1">
          <mxGeometry width="50" height="50" relative="1" as="geometry">
            <mxPoint x="1610" y="790.0000000000002" as="sourcePoint" />
            <mxPoint x="1530" y="871.0000000000002" as="targetPoint" />
          </mxGeometry>
        </mxCell>
        <mxCell id="e8nvUrUcDjRh6I55UbsG-270" value="" style="endArrow=none;html=1;rounded=0;strokeWidth=2;strokeColor=#0000FF;" edge="1" parent="1">
          <mxGeometry width="50" height="50" relative="1" as="geometry">
            <mxPoint x="1610" y="1270" as="sourcePoint" />
            <mxPoint x="1530" y="1191" as="targetPoint" />
          </mxGeometry>
        </mxCell>
        <mxCell id="e8nvUrUcDjRh6I55UbsG-271" value="" style="endArrow=none;html=1;rounded=0;strokeWidth=2;strokeColor=#0000FF;" edge="1" parent="1">
          <mxGeometry width="50" height="50" relative="1" as="geometry">
            <mxPoint x="1130" y="891.0000000000002" as="sourcePoint" />
            <mxPoint x="1130" y="1171" as="targetPoint" />
          </mxGeometry>
        </mxCell>
        <mxCell id="e8nvUrUcDjRh6I55UbsG-272" value="" style="endArrow=none;html=1;rounded=0;" edge="1" parent="1">
          <mxGeometry width="50" height="50" relative="1" as="geometry">
            <mxPoint x="1130" y="891.0000000000002" as="sourcePoint" />
            <mxPoint x="1040" y="800" as="targetPoint" />
          </mxGeometry>
        </mxCell>
        <mxCell id="e8nvUrUcDjRh6I55UbsG-273" value="" style="endArrow=none;html=1;rounded=0;" edge="1" parent="1">
          <mxGeometry width="50" height="50" relative="1" as="geometry">
            <mxPoint x="1130" y="1171" as="sourcePoint" />
            <mxPoint x="1040" y="1260" as="targetPoint" />
          </mxGeometry>
        </mxCell>
        <mxCell id="e8nvUrUcDjRh6I55UbsG-274" value="" style="endArrow=none;html=1;rounded=0;strokeColor=#7F00FF;strokeWidth=2;" edge="1" parent="1">
          <mxGeometry width="50" height="50" relative="1" as="geometry">
            <mxPoint x="1130" y="890" as="sourcePoint" />
            <mxPoint x="1490" y="890" as="targetPoint" />
          </mxGeometry>
        </mxCell>
        <mxCell id="e8nvUrUcDjRh6I55UbsG-275" value="" style="endArrow=classic;startArrow=classic;html=1;rounded=0;strokeColor=#000000;strokeWidth=1;" edge="1" parent="1">
          <mxGeometry width="50" height="50" relative="1" as="geometry">
            <mxPoint x="1070" y="1220" as="sourcePoint" />
            <mxPoint x="1070" y="1170" as="targetPoint" />
          </mxGeometry>
        </mxCell>
        <mxCell id="e8nvUrUcDjRh6I55UbsG-276" value="" style="endArrow=none;html=1;rounded=0;strokeColor=#0000FF;strokeWidth=2;startArrow=none;" edge="1" parent="1" source="e8nvUrUcDjRh6I55UbsG-337">
          <mxGeometry width="50" height="50" relative="1" as="geometry">
            <mxPoint x="1080" y="840" as="sourcePoint" />
            <mxPoint x="1130" y="890" as="targetPoint" />
          </mxGeometry>
        </mxCell>
        <mxCell id="e8nvUrUcDjRh6I55UbsG-277" value="855" style="text;html=1;align=center;verticalAlign=middle;resizable=0;points=[];autosize=1;strokeColor=none;fillColor=none;" vertex="1" parent="1">
          <mxGeometry x="1120" y="810" width="40" height="30" as="geometry" />
        </mxCell>
        <mxCell id="e8nvUrUcDjRh6I55UbsG-278" value="" style="endArrow=classic;startArrow=classic;html=1;rounded=0;strokeColor=#000000;strokeWidth=1;" edge="1" parent="1">
          <mxGeometry width="50" height="50" relative="1" as="geometry">
            <mxPoint x="1080" y="830" as="sourcePoint" />
            <mxPoint x="1220" y="830" as="targetPoint" />
          </mxGeometry>
        </mxCell>
        <mxCell id="e8nvUrUcDjRh6I55UbsG-279" value="400" style="text;html=1;align=center;verticalAlign=middle;resizable=0;points=[];autosize=1;strokeColor=none;fillColor=none;rotation=45;" vertex="1" parent="1">
          <mxGeometry x="1080" y="870" width="40" height="30" as="geometry" />
        </mxCell>
        <mxCell id="e8nvUrUcDjRh6I55UbsG-280" value="" style="endArrow=none;html=1;rounded=0;strokeColor=#0000FF;strokeWidth=2;" edge="1" parent="1">
          <mxGeometry width="50" height="50" relative="1" as="geometry">
            <mxPoint x="1080" y="840" as="sourcePoint" />
            <mxPoint x="1080" y="1220" as="targetPoint" />
          </mxGeometry>
        </mxCell>
        <mxCell id="e8nvUrUcDjRh6I55UbsG-281" value="" style="endArrow=none;html=1;rounded=0;strokeColor=#7F00FF;strokeWidth=2;" edge="1" parent="1">
          <mxGeometry width="50" height="50" relative="1" as="geometry">
            <mxPoint x="1080" y="1220" as="sourcePoint" />
            <mxPoint x="1560" y="1220" as="targetPoint" />
          </mxGeometry>
        </mxCell>
        <mxCell id="e8nvUrUcDjRh6I55UbsG-282" value="" style="endArrow=none;html=1;rounded=0;strokeColor=#0000FF;strokeWidth=2;" edge="1" parent="1">
          <mxGeometry width="50" height="50" relative="1" as="geometry">
            <mxPoint x="1560" y="840" as="sourcePoint" />
            <mxPoint x="1560" y="1220" as="targetPoint" />
          </mxGeometry>
        </mxCell>
        <mxCell id="e8nvUrUcDjRh6I55UbsG-283" value="" style="endArrow=none;html=1;rounded=0;strokeColor=#7F00FF;strokeWidth=2;" edge="1" parent="1">
          <mxGeometry width="50" height="50" relative="1" as="geometry">
            <mxPoint x="1080" y="840" as="sourcePoint" />
            <mxPoint x="1560" y="840" as="targetPoint" />
          </mxGeometry>
        </mxCell>
        <mxCell id="e8nvUrUcDjRh6I55UbsG-284" value="" style="endArrow=none;html=1;rounded=0;strokeWidth=2;strokeColor=#0000FF;" edge="1" parent="1">
          <mxGeometry width="50" height="50" relative="1" as="geometry">
            <mxPoint x="1540" y="1220" as="sourcePoint" />
            <mxPoint x="1540" y="840" as="targetPoint" />
          </mxGeometry>
        </mxCell>
        <mxCell id="e8nvUrUcDjRh6I55UbsG-285" value="" style="endArrow=none;html=1;rounded=0;strokeColor=#0000FF;strokeWidth=2;" edge="1" parent="1">
          <mxGeometry width="50" height="50" relative="1" as="geometry">
            <mxPoint x="1080" y="1220" as="sourcePoint" />
            <mxPoint x="1130" y="1170" as="targetPoint" />
          </mxGeometry>
        </mxCell>
        <mxCell id="e8nvUrUcDjRh6I55UbsG-286" value="" style="endArrow=none;html=1;rounded=0;strokeColor=#0000FF;strokeWidth=2;" edge="1" parent="1">
          <mxGeometry width="50" height="50" relative="1" as="geometry">
            <mxPoint x="1490" y="1120" as="sourcePoint" />
            <mxPoint x="1130" y="1120" as="targetPoint" />
          </mxGeometry>
        </mxCell>
        <mxCell id="e8nvUrUcDjRh6I55UbsG-287" value="" style="endArrow=none;html=1;rounded=0;strokeColor=#0000FF;strokeWidth=2;" edge="1" parent="1">
          <mxGeometry width="50" height="50" relative="1" as="geometry">
            <mxPoint x="1080" y="1170" as="sourcePoint" />
            <mxPoint x="1130" y="1120" as="targetPoint" />
          </mxGeometry>
        </mxCell>
        <mxCell id="e8nvUrUcDjRh6I55UbsG-288" value="" style="endArrow=none;html=1;rounded=0;strokeWidth=2;strokeColor=#0000FF;" edge="1" parent="1">
          <mxGeometry width="50" height="50" relative="1" as="geometry">
            <mxPoint x="1490" y="1120" as="sourcePoint" />
            <mxPoint x="1540" y="1170" as="targetPoint" />
          </mxGeometry>
        </mxCell>
        <mxCell id="e8nvUrUcDjRh6I55UbsG-289" value="" style="endArrow=none;html=1;rounded=0;strokeColor=#0000FF;strokeWidth=2;" edge="1" parent="1">
          <mxGeometry width="50" height="50" relative="1" as="geometry">
            <mxPoint x="1080" y="1170" as="sourcePoint" />
            <mxPoint x="1540" y="1170" as="targetPoint" />
          </mxGeometry>
        </mxCell>
        <mxCell id="e8nvUrUcDjRh6I55UbsG-290" value="" style="endArrow=none;html=1;rounded=0;strokeColor=#0000FF;strokeWidth=2;" edge="1" parent="1">
          <mxGeometry width="50" height="50" relative="1" as="geometry">
            <mxPoint x="1240" y="1170" as="sourcePoint" />
            <mxPoint x="1240" y="890" as="targetPoint" />
          </mxGeometry>
        </mxCell>
        <mxCell id="e8nvUrUcDjRh6I55UbsG-291" value="" style="endArrow=none;html=1;rounded=0;strokeColor=#0000FF;strokeWidth=2;" edge="1" parent="1">
          <mxGeometry width="50" height="50" relative="1" as="geometry">
            <mxPoint x="1220" y="1220" as="sourcePoint" />
            <mxPoint x="1220" y="840" as="targetPoint" />
          </mxGeometry>
        </mxCell>
        <mxCell id="e8nvUrUcDjRh6I55UbsG-292" value="" style="endArrow=none;html=1;rounded=0;strokeColor=#0000FF;strokeWidth=2;" edge="1" parent="1">
          <mxGeometry width="50" height="50" relative="1" as="geometry">
            <mxPoint x="1220" y="1220" as="sourcePoint" />
            <mxPoint x="1240" y="1170" as="targetPoint" />
          </mxGeometry>
        </mxCell>
        <mxCell id="e8nvUrUcDjRh6I55UbsG-293" value="" style="endArrow=none;html=1;rounded=0;strokeColor=#0000FF;strokeWidth=2;" edge="1" parent="1">
          <mxGeometry width="50" height="50" relative="1" as="geometry">
            <mxPoint x="1220" y="840" as="sourcePoint" />
            <mxPoint x="1240" y="890" as="targetPoint" />
          </mxGeometry>
        </mxCell>
        <mxCell id="e8nvUrUcDjRh6I55UbsG-294" value="" style="endArrow=none;html=1;rounded=0;strokeColor=#FF0000;strokeWidth=2;" edge="1" parent="1">
          <mxGeometry width="50" height="50" relative="1" as="geometry">
            <mxPoint x="1220" y="1170" as="sourcePoint" />
            <mxPoint x="1220" y="880" as="targetPoint" />
          </mxGeometry>
        </mxCell>
        <mxCell id="e8nvUrUcDjRh6I55UbsG-295" value="500" style="text;html=1;align=center;verticalAlign=middle;resizable=0;points=[];autosize=1;strokeColor=none;fillColor=none;rotation=-90;" vertex="1" parent="1">
          <mxGeometry x="1040" y="1180" width="40" height="30" as="geometry" />
        </mxCell>
        <mxCell id="e8nvUrUcDjRh6I55UbsG-296" value="" style="endArrow=classic;startArrow=classic;html=1;rounded=0;strokeColor=#000000;strokeWidth=1;" edge="1" parent="1">
          <mxGeometry width="50" height="50" relative="1" as="geometry">
            <mxPoint x="1040" y="1170" as="sourcePoint" />
            <mxPoint x="1040" y="840" as="targetPoint" />
          </mxGeometry>
        </mxCell>
        <mxCell id="e8nvUrUcDjRh6I55UbsG-297" value="2300" style="text;html=1;align=center;verticalAlign=middle;resizable=0;points=[];autosize=1;strokeColor=none;fillColor=none;rotation=-90;" vertex="1" parent="1">
          <mxGeometry x="1010" y="980" width="50" height="30" as="geometry" />
        </mxCell>
        <mxCell id="e8nvUrUcDjRh6I55UbsG-298" value="" style="endArrow=classic;startArrow=classic;html=1;rounded=0;strokeColor=#000000;strokeWidth=1;" edge="1" parent="1">
          <mxGeometry width="50" height="50" relative="1" as="geometry">
            <mxPoint x="1130" y="900" as="sourcePoint" />
            <mxPoint x="1080" y="850" as="targetPoint" />
          </mxGeometry>
        </mxCell>
        <mxCell id="e8nvUrUcDjRh6I55UbsG-299" value="" style="endArrow=classic;startArrow=classic;html=1;rounded=0;strokeColor=#000000;strokeWidth=1;" edge="1" parent="1">
          <mxGeometry width="50" height="50" relative="1" as="geometry">
            <mxPoint x="1220" y="830" as="sourcePoint" />
            <mxPoint x="1540" y="830" as="targetPoint" />
          </mxGeometry>
        </mxCell>
        <mxCell id="e8nvUrUcDjRh6I55UbsG-300" value="2000&lt;br&gt;" style="text;html=1;align=center;verticalAlign=middle;resizable=0;points=[];autosize=1;strokeColor=none;fillColor=none;" vertex="1" parent="1">
          <mxGeometry x="1350" y="810" width="50" height="30" as="geometry" />
        </mxCell>
        <mxCell id="e8nvUrUcDjRh6I55UbsG-301" value="" style="endArrow=classic;startArrow=classic;html=1;rounded=0;strokeColor=#000000;strokeWidth=1;entryX=0.748;entryY=1.009;entryDx=0;entryDy=0;entryPerimeter=0;" edge="1" parent="1" target="e8nvUrUcDjRh6I55UbsG-302">
          <mxGeometry width="50" height="50" relative="1" as="geometry">
            <mxPoint x="1540" y="830" as="sourcePoint" />
            <mxPoint x="1570" y="830" as="targetPoint" />
          </mxGeometry>
        </mxCell>
        <mxCell id="e8nvUrUcDjRh6I55UbsG-302" value="185" style="text;html=1;align=center;verticalAlign=middle;resizable=0;points=[];autosize=1;strokeColor=none;fillColor=none;" vertex="1" parent="1">
          <mxGeometry x="1530" y="800" width="40" height="30" as="geometry" />
        </mxCell>
        <mxCell id="e8nvUrUcDjRh6I55UbsG-303" value="" style="endArrow=none;html=1;rounded=0;strokeColor=#0000FF;strokeWidth=2;" edge="1" parent="1">
          <mxGeometry width="50" height="50" relative="1" as="geometry">
            <mxPoint x="1130" y="920" as="sourcePoint" />
            <mxPoint x="1080" y="880" as="targetPoint" />
          </mxGeometry>
        </mxCell>
        <mxCell id="e8nvUrUcDjRh6I55UbsG-304" value="" style="endArrow=none;html=1;rounded=0;strokeColor=#0000FF;strokeWidth=2;" edge="1" parent="1">
          <mxGeometry width="50" height="50" relative="1" as="geometry">
            <mxPoint x="1240" y="920" as="sourcePoint" />
            <mxPoint x="1220" y="880" as="targetPoint" />
          </mxGeometry>
        </mxCell>
        <mxCell id="e8nvUrUcDjRh6I55UbsG-305" value="" style="endArrow=none;html=1;rounded=0;strokeColor=#0000FF;strokeWidth=2;" edge="1" parent="1">
          <mxGeometry width="50" height="50" relative="1" as="geometry">
            <mxPoint x="1080" y="880" as="sourcePoint" />
            <mxPoint x="1220" y="880" as="targetPoint" />
          </mxGeometry>
        </mxCell>
        <mxCell id="e8nvUrUcDjRh6I55UbsG-306" value="" style="endArrow=none;html=1;rounded=0;dashed=1;strokeColor=#00FF00;strokeWidth=2;" edge="1" parent="1">
          <mxGeometry width="50" height="50" relative="1" as="geometry">
            <mxPoint x="1080" y="850" as="sourcePoint" />
            <mxPoint x="1560" y="850" as="targetPoint" />
          </mxGeometry>
        </mxCell>
        <mxCell id="e8nvUrUcDjRh6I55UbsG-307" value="" style="endArrow=none;html=1;rounded=0;strokeColor=#FF0000;strokeWidth=2;" edge="1" parent="1">
          <mxGeometry width="50" height="50" relative="1" as="geometry">
            <mxPoint x="1540" y="880" as="sourcePoint" />
            <mxPoint x="1220" y="880" as="targetPoint" />
          </mxGeometry>
        </mxCell>
        <mxCell id="e8nvUrUcDjRh6I55UbsG-308" value="" style="endArrow=none;html=1;rounded=0;strokeColor=#FF0000;strokeWidth=2;" edge="1" parent="1">
          <mxGeometry width="50" height="50" relative="1" as="geometry">
            <mxPoint x="1220" y="1166" as="sourcePoint" />
            <mxPoint x="1540" y="1166" as="targetPoint" />
          </mxGeometry>
        </mxCell>
        <mxCell id="e8nvUrUcDjRh6I55UbsG-309" value="" style="endArrow=none;html=1;rounded=0;strokeColor=#FF0000;strokeWidth=2;" edge="1" parent="1">
          <mxGeometry width="50" height="50" relative="1" as="geometry">
            <mxPoint x="1540" y="880" as="sourcePoint" />
            <mxPoint x="1540" y="1170" as="targetPoint" />
          </mxGeometry>
        </mxCell>
        <mxCell id="e8nvUrUcDjRh6I55UbsG-310" value="" style="endArrow=none;html=1;rounded=0;strokeColor=#FF0000;strokeWidth=1;" edge="1" parent="1">
          <mxGeometry width="50" height="50" relative="1" as="geometry">
            <mxPoint x="1220" y="880" as="sourcePoint" />
            <mxPoint x="1190" y="820" as="targetPoint" />
          </mxGeometry>
        </mxCell>
        <mxCell id="e8nvUrUcDjRh6I55UbsG-311" value="" style="endArrow=none;html=1;rounded=0;strokeColor=#FF0000;strokeWidth=1;" edge="1" parent="1">
          <mxGeometry width="50" height="50" relative="1" as="geometry">
            <mxPoint x="1540" y="880" as="sourcePoint" />
            <mxPoint x="1600" y="820" as="targetPoint" />
          </mxGeometry>
        </mxCell>
        <mxCell id="e8nvUrUcDjRh6I55UbsG-312" value="" style="endArrow=none;html=1;rounded=0;strokeColor=#FF0000;strokeWidth=1;" edge="1" parent="1">
          <mxGeometry width="50" height="50" relative="1" as="geometry">
            <mxPoint x="1600" y="820" as="sourcePoint" />
            <mxPoint x="1190" y="820" as="targetPoint" />
          </mxGeometry>
        </mxCell>
        <mxCell id="e8nvUrUcDjRh6I55UbsG-313" value="" style="endArrow=none;html=1;rounded=0;strokeColor=#FF0000;strokeWidth=1;" edge="1" parent="1">
          <mxGeometry width="50" height="50" relative="1" as="geometry">
            <mxPoint x="1220" y="1170" as="sourcePoint" />
            <mxPoint x="1190" y="820" as="targetPoint" />
          </mxGeometry>
        </mxCell>
        <mxCell id="e8nvUrUcDjRh6I55UbsG-314" value="" style="endArrow=none;html=1;rounded=0;strokeColor=#FF0000;strokeWidth=1;" edge="1" parent="1">
          <mxGeometry width="50" height="50" relative="1" as="geometry">
            <mxPoint x="1600" y="820" as="sourcePoint" />
            <mxPoint x="1540" y="1170" as="targetPoint" />
          </mxGeometry>
        </mxCell>
        <mxCell id="e8nvUrUcDjRh6I55UbsG-315" value="" style="endArrow=none;html=1;rounded=0;strokeColor=#FF0000;strokeWidth=1;" edge="1" parent="1">
          <mxGeometry width="50" height="50" relative="1" as="geometry">
            <mxPoint x="1220" y="970" as="sourcePoint" />
            <mxPoint x="1190" y="820" as="targetPoint" />
          </mxGeometry>
        </mxCell>
        <mxCell id="e8nvUrUcDjRh6I55UbsG-316" value="" style="endArrow=none;html=1;rounded=0;strokeColor=#FF0000;strokeWidth=1;" edge="1" parent="1">
          <mxGeometry width="50" height="50" relative="1" as="geometry">
            <mxPoint x="1540" y="970" as="sourcePoint" />
            <mxPoint x="1600" y="820" as="targetPoint" />
          </mxGeometry>
        </mxCell>
        <mxCell id="e8nvUrUcDjRh6I55UbsG-317" value="" style="endArrow=none;html=1;rounded=0;strokeColor=#0000FF;strokeWidth=2;" edge="1" parent="1">
          <mxGeometry width="50" height="50" relative="1" as="geometry">
            <mxPoint x="1220" y="1170" as="sourcePoint" />
            <mxPoint x="1240" y="1120" as="targetPoint" />
          </mxGeometry>
        </mxCell>
        <mxCell id="e8nvUrUcDjRh6I55UbsG-318" value="" style="endArrow=none;html=1;rounded=0;strokeColor=#0000FF;strokeWidth=2;" edge="1" parent="1">
          <mxGeometry width="50" height="50" relative="1" as="geometry">
            <mxPoint x="1560" y="880" as="sourcePoint" />
            <mxPoint x="1540" y="880" as="targetPoint" />
          </mxGeometry>
        </mxCell>
        <mxCell id="e8nvUrUcDjRh6I55UbsG-319" value="" style="endArrow=none;html=1;rounded=0;strokeColor=#0000FF;strokeWidth=2;" edge="1" parent="1">
          <mxGeometry width="50" height="50" relative="1" as="geometry">
            <mxPoint x="1490" y="920" as="sourcePoint" />
            <mxPoint x="1540" y="880" as="targetPoint" />
          </mxGeometry>
        </mxCell>
        <mxCell id="e8nvUrUcDjRh6I55UbsG-320" value="" style="endArrow=none;html=1;rounded=0;strokeColor=#0000FF;strokeWidth=2;" edge="1" parent="1">
          <mxGeometry width="50" height="50" relative="1" as="geometry">
            <mxPoint x="1130" y="920" as="sourcePoint" />
            <mxPoint x="1240" y="920" as="targetPoint" />
          </mxGeometry>
        </mxCell>
        <mxCell id="e8nvUrUcDjRh6I55UbsG-321" value="" style="endArrow=none;html=1;rounded=0;strokeColor=#0000FF;strokeWidth=2;" edge="1" parent="1">
          <mxGeometry width="50" height="50" relative="1" as="geometry">
            <mxPoint x="1490" y="920" as="sourcePoint" />
            <mxPoint x="1240" y="920" as="targetPoint" />
          </mxGeometry>
        </mxCell>
        <mxCell id="e8nvUrUcDjRh6I55UbsG-322" value="" style="endArrow=none;html=1;rounded=0;strokeColor=#0000FF;strokeWidth=2;" edge="1" parent="1">
          <mxGeometry width="50" height="50" relative="1" as="geometry">
            <mxPoint x="1560" y="1170" as="sourcePoint" />
            <mxPoint x="1540" y="1170" as="targetPoint" />
          </mxGeometry>
        </mxCell>
        <mxCell id="e8nvUrUcDjRh6I55UbsG-323" value="" style="endArrow=none;html=1;rounded=0;strokeColor=#0000FF;strokeWidth=2;" edge="1" parent="1">
          <mxGeometry width="50" height="50" relative="1" as="geometry">
            <mxPoint x="1530" y="1140" as="sourcePoint" />
            <mxPoint x="1560" y="1170" as="targetPoint" />
          </mxGeometry>
        </mxCell>
        <mxCell id="e8nvUrUcDjRh6I55UbsG-324" value="" style="endArrow=none;html=1;rounded=0;strokeColor=#0000FF;strokeWidth=2;" edge="1" parent="1">
          <mxGeometry width="50" height="50" relative="1" as="geometry">
            <mxPoint x="1530" y="1140" as="sourcePoint" />
            <mxPoint x="1510" y="1140" as="targetPoint" />
          </mxGeometry>
        </mxCell>
        <mxCell id="e8nvUrUcDjRh6I55UbsG-325" value="" style="endArrow=none;html=1;rounded=0;strokeColor=#0000FF;strokeWidth=2;anchorPointDirection=1;movable=1;bendable=1;deletable=1;fixDash=0;" edge="1" parent="1">
          <mxGeometry width="50" height="50" relative="1" as="geometry">
            <mxPoint x="1530" y="905" as="sourcePoint" />
            <mxPoint x="1510" y="905" as="targetPoint" />
          </mxGeometry>
        </mxCell>
        <mxCell id="e8nvUrUcDjRh6I55UbsG-326" value="" style="endArrow=none;html=1;rounded=0;strokeColor=#0000FF;strokeWidth=2;" edge="1" parent="1">
          <mxGeometry width="50" height="50" relative="1" as="geometry">
            <mxPoint x="1530" y="905" as="sourcePoint" />
            <mxPoint x="1560" y="880" as="targetPoint" />
          </mxGeometry>
        </mxCell>
        <mxCell id="e8nvUrUcDjRh6I55UbsG-327" value="" style="endArrow=classic;startArrow=classic;html=1;rounded=0;strokeColor=#000000;strokeWidth=1;" edge="1" parent="1">
          <mxGeometry width="50" height="50" relative="1" as="geometry">
            <mxPoint x="1050" y="1170" as="sourcePoint" />
            <mxPoint x="1050" y="880" as="targetPoint" />
          </mxGeometry>
        </mxCell>
        <mxCell id="e8nvUrUcDjRh6I55UbsG-328" value="2000" style="text;html=1;align=center;verticalAlign=middle;resizable=0;points=[];autosize=1;strokeColor=none;fillColor=none;rotation=-90;" vertex="1" parent="1">
          <mxGeometry x="1020" y="1000" width="50" height="30" as="geometry" />
        </mxCell>
        <mxCell id="e8nvUrUcDjRh6I55UbsG-329" value="" style="endArrow=none;html=1;rounded=0;strokeColor=#000000;strokeWidth=0.5;" edge="1" parent="1">
          <mxGeometry width="50" height="50" relative="1" as="geometry">
            <mxPoint x="1040" y="840" as="sourcePoint" />
            <mxPoint x="1080" y="840" as="targetPoint" />
          </mxGeometry>
        </mxCell>
        <mxCell id="e8nvUrUcDjRh6I55UbsG-330" value="" style="endArrow=none;html=1;rounded=0;strokeColor=#000000;strokeWidth=0.5;" edge="1" parent="1">
          <mxGeometry width="50" height="50" relative="1" as="geometry">
            <mxPoint x="1050" y="880" as="sourcePoint" />
            <mxPoint x="1080" y="880" as="targetPoint" />
          </mxGeometry>
        </mxCell>
        <mxCell id="e8nvUrUcDjRh6I55UbsG-331" value="" style="endArrow=none;html=1;rounded=0;strokeColor=#000000;strokeWidth=0.5;" edge="1" parent="1">
          <mxGeometry width="50" height="50" relative="1" as="geometry">
            <mxPoint x="1040" y="1170" as="sourcePoint" />
            <mxPoint x="1080" y="1170" as="targetPoint" />
          </mxGeometry>
        </mxCell>
        <mxCell id="e8nvUrUcDjRh6I55UbsG-332" value="" style="endArrow=none;html=1;rounded=0;strokeColor=#000000;strokeWidth=0.5;" edge="1" parent="1">
          <mxGeometry width="50" height="50" relative="1" as="geometry">
            <mxPoint x="1070" y="1220" as="sourcePoint" />
            <mxPoint x="1080" y="1220" as="targetPoint" />
          </mxGeometry>
        </mxCell>
        <mxCell id="e8nvUrUcDjRh6I55UbsG-333" value="" style="endArrow=none;html=1;rounded=0;strokeColor=#000000;strokeWidth=0.5;" edge="1" parent="1">
          <mxGeometry width="50" height="50" relative="1" as="geometry">
            <mxPoint x="1080" y="830" as="sourcePoint" />
            <mxPoint x="1080" y="840" as="targetPoint" />
          </mxGeometry>
        </mxCell>
        <mxCell id="e8nvUrUcDjRh6I55UbsG-334" value="" style="endArrow=none;html=1;rounded=0;strokeColor=#000000;strokeWidth=0.5;" edge="1" parent="1">
          <mxGeometry width="50" height="50" relative="1" as="geometry">
            <mxPoint x="1220" y="830" as="sourcePoint" />
            <mxPoint x="1220" y="840" as="targetPoint" />
          </mxGeometry>
        </mxCell>
        <mxCell id="e8nvUrUcDjRh6I55UbsG-335" value="" style="endArrow=none;html=1;rounded=0;strokeColor=#000000;strokeWidth=0.5;exitX=0.25;exitY=1.003;exitDx=0;exitDy=0;exitPerimeter=0;" edge="1" parent="1" source="e8nvUrUcDjRh6I55UbsG-302">
          <mxGeometry width="50" height="50" relative="1" as="geometry">
            <mxPoint x="1230" y="840" as="sourcePoint" />
            <mxPoint x="1540" y="840" as="targetPoint" />
          </mxGeometry>
        </mxCell>
        <mxCell id="e8nvUrUcDjRh6I55UbsG-336" value="" style="endArrow=none;html=1;rounded=0;strokeColor=#000000;strokeWidth=0.5;exitX=0.75;exitY=1.009;exitDx=0;exitDy=0;exitPerimeter=0;" edge="1" parent="1" source="e8nvUrUcDjRh6I55UbsG-302">
          <mxGeometry width="50" height="50" relative="1" as="geometry">
            <mxPoint x="1550" y="840.09" as="sourcePoint" />
            <mxPoint x="1560" y="840" as="targetPoint" />
          </mxGeometry>
        </mxCell>
        <mxCell id="e8nvUrUcDjRh6I55UbsG-337" value="" style="rounded=0;whiteSpace=wrap;html=1;fillColor=#80FF00;strokeColor=#80FF00;opacity=30;strokeWidth=0;" vertex="1" parent="1">
          <mxGeometry x="1080" y="840" width="140" height="40" as="geometry" />
        </mxCell>
        <mxCell id="e8nvUrUcDjRh6I55UbsG-338" value="" style="endArrow=none;html=1;rounded=0;strokeColor=#0000FF;strokeWidth=2;" edge="1" parent="1" target="e8nvUrUcDjRh6I55UbsG-337">
          <mxGeometry width="50" height="50" relative="1" as="geometry">
            <mxPoint x="1080" y="840" as="sourcePoint" />
            <mxPoint x="1129.9999999999998" y="890" as="targetPoint" />
          </mxGeometry>
        </mxCell>
        <mxCell id="e8nvUrUcDjRh6I55UbsG-339" value="" style="rounded=0;whiteSpace=wrap;html=1;fillColor=#80FF00;strokeColor=#80FF00;opacity=30;strokeWidth=0;" vertex="1" parent="1">
          <mxGeometry x="1220" y="840" width="340" height="40" as="geometry" />
        </mxCell>
        <mxCell id="e8nvUrUcDjRh6I55UbsG-340" value="" style="rounded=0;whiteSpace=wrap;html=1;fillColor=#80FF00;strokeColor=#80FF00;opacity=30;strokeWidth=0;" vertex="1" parent="1">
          <mxGeometry x="1080" y="1180" width="480" height="40" as="geometry" />
        </mxCell>
        <mxCell id="e8nvUrUcDjRh6I55UbsG-341" value="" style="endArrow=none;html=1;rounded=0;strokeColor=#FF0080;strokeWidth=2;" edge="1" parent="1">
          <mxGeometry width="50" height="50" relative="1" as="geometry">
            <mxPoint x="1080" y="892" as="sourcePoint" />
            <mxPoint x="1220" y="892" as="targetPoint" />
          </mxGeometry>
        </mxCell>
        <mxCell id="e8nvUrUcDjRh6I55UbsG-342" value="" style="endArrow=none;html=1;rounded=0;strokeColor=#FF0080;strokeWidth=2;" edge="1" parent="1">
          <mxGeometry width="50" height="50" relative="1" as="geometry">
            <mxPoint x="1130" y="931" as="sourcePoint" />
            <mxPoint x="1240" y="931" as="targetPoint" />
          </mxGeometry>
        </mxCell>
        <mxCell id="e8nvUrUcDjRh6I55UbsG-343" value="" style="endArrow=none;html=1;rounded=0;strokeColor=#FF0080;strokeWidth=2;" edge="1" parent="1">
          <mxGeometry width="50" height="50" relative="1" as="geometry">
            <mxPoint x="1240" y="1080" as="sourcePoint" />
            <mxPoint x="1220" y="1120" as="targetPoint" />
          </mxGeometry>
        </mxCell>
        <mxCell id="e8nvUrUcDjRh6I55UbsG-344" value="" style="endArrow=none;html=1;rounded=0;strokeColor=#FF0080;strokeWidth=2;" edge="1" parent="1">
          <mxGeometry width="50" height="50" relative="1" as="geometry">
            <mxPoint x="1240" y="1040" as="sourcePoint" />
            <mxPoint x="1220" y="1060" as="targetPoint" />
          </mxGeometry>
        </mxCell>
        <mxCell id="e8nvUrUcDjRh6I55UbsG-345" value="" style="endArrow=none;html=1;rounded=0;strokeColor=#FF0080;strokeWidth=2;" edge="1" parent="1">
          <mxGeometry width="50" height="50" relative="1" as="geometry">
            <mxPoint x="1240" y="1000" as="sourcePoint" />
            <mxPoint x="1220" y="1000" as="targetPoint" />
          </mxGeometry>
        </mxCell>
        <mxCell id="e8nvUrUcDjRh6I55UbsG-346" value="" style="endArrow=none;html=1;rounded=0;strokeColor=#FF0080;strokeWidth=2;" edge="1" parent="1">
          <mxGeometry width="50" height="50" relative="1" as="geometry">
            <mxPoint x="1240" y="960" as="sourcePoint" />
            <mxPoint x="1220" y="930" as="targetPoint" />
          </mxGeometry>
        </mxCell>
        <mxCell id="e8nvUrUcDjRh6I55UbsG-347" value="" style="endArrow=none;html=1;rounded=0;strokeColor=#FF0080;strokeWidth=2;" edge="1" parent="1">
          <mxGeometry width="50" height="50" relative="1" as="geometry">
            <mxPoint x="1130" y="1080" as="sourcePoint" />
            <mxPoint x="1080" y="1120" as="targetPoint" />
          </mxGeometry>
        </mxCell>
        <mxCell id="e8nvUrUcDjRh6I55UbsG-348" value="" style="endArrow=none;html=1;rounded=0;strokeColor=#FF0080;strokeWidth=2;" edge="1" parent="1">
          <mxGeometry width="50" height="50" relative="1" as="geometry">
            <mxPoint x="1130" y="1040" as="sourcePoint" />
            <mxPoint x="1080" y="1060" as="targetPoint" />
          </mxGeometry>
        </mxCell>
        <mxCell id="e8nvUrUcDjRh6I55UbsG-349" value="" style="endArrow=none;html=1;rounded=0;strokeColor=#FF0080;strokeWidth=2;" edge="1" parent="1">
          <mxGeometry width="50" height="50" relative="1" as="geometry">
            <mxPoint x="1130" y="1000" as="sourcePoint" />
            <mxPoint x="1080" y="1000" as="targetPoint" />
          </mxGeometry>
        </mxCell>
        <mxCell id="e8nvUrUcDjRh6I55UbsG-350" value="" style="endArrow=none;html=1;rounded=0;strokeColor=#FF0080;strokeWidth=2;" edge="1" parent="1">
          <mxGeometry width="50" height="50" relative="1" as="geometry">
            <mxPoint x="1130" y="960" as="sourcePoint" />
            <mxPoint x="1080" y="930" as="targetPoint" />
          </mxGeometry>
        </mxCell>
        <mxCell id="e8nvUrUcDjRh6I55UbsG-351" value="" style="endArrow=none;html=1;rounded=0;strokeColor=#FF0080;strokeWidth=2;" edge="1" parent="1">
          <mxGeometry width="50" height="50" relative="1" as="geometry">
            <mxPoint x="1510" y="1090" as="sourcePoint" />
            <mxPoint x="1540" y="1120" as="targetPoint" />
          </mxGeometry>
        </mxCell>
        <mxCell id="e8nvUrUcDjRh6I55UbsG-352" value="" style="endArrow=none;html=1;rounded=0;strokeColor=#FF0080;strokeWidth=2;" edge="1" parent="1">
          <mxGeometry width="50" height="50" relative="1" as="geometry">
            <mxPoint x="1510" y="1040" as="sourcePoint" />
            <mxPoint x="1540" y="1060" as="targetPoint" />
          </mxGeometry>
        </mxCell>
        <mxCell id="e8nvUrUcDjRh6I55UbsG-353" value="" style="endArrow=none;html=1;rounded=0;strokeColor=#FF0080;strokeWidth=2;" edge="1" parent="1">
          <mxGeometry width="50" height="50" relative="1" as="geometry">
            <mxPoint x="1510" y="950" as="sourcePoint" />
            <mxPoint x="1540" y="940" as="targetPoint" />
          </mxGeometry>
        </mxCell>
        <mxCell id="e8nvUrUcDjRh6I55UbsG-354" value="" style="endArrow=none;html=1;rounded=0;strokeColor=#FF0080;strokeWidth=2;" edge="1" parent="1">
          <mxGeometry width="50" height="50" relative="1" as="geometry">
            <mxPoint x="1510" y="990" as="sourcePoint" />
            <mxPoint x="1540" y="990" as="targetPoint" />
          </mxGeometry>
        </mxCell>
        <mxCell id="e8nvUrUcDjRh6I55UbsG-355" value="" style="endArrow=none;html=1;rounded=0;strokeColor=#FF0000;strokeWidth=1;" edge="1" parent="1">
          <mxGeometry width="50" height="50" relative="1" as="geometry">
            <mxPoint x="1380" y="880" as="sourcePoint" />
            <mxPoint x="1390" y="820" as="targetPoint" />
          </mxGeometry>
        </mxCell>
        <mxCell id="e8nvUrUcDjRh6I55UbsG-356" value="" style="endArrow=none;html=1;rounded=0;strokeColor=#FF0000;strokeWidth=1;entryX=0.5;entryY=0;entryDx=0;entryDy=0;" edge="1" parent="1">
          <mxGeometry width="50" height="50" relative="1" as="geometry">
            <mxPoint x="1380" y="920" as="sourcePoint" />
            <mxPoint x="1385" y="849" as="targetPoint" />
          </mxGeometry>
        </mxCell>
        <mxCell id="e8nvUrUcDjRh6I55UbsG-357" value="" style="endArrow=none;html=1;rounded=0;strokeColor=#FF0000;strokeWidth=2;entryX=0.469;entryY=1;entryDx=0;entryDy=0;entryPerimeter=0;" edge="1" parent="1" target="e8nvUrUcDjRh6I55UbsG-339">
          <mxGeometry width="50" height="50" relative="1" as="geometry">
            <mxPoint x="1379" y="1170" as="sourcePoint" />
            <mxPoint x="1540" y="1040" as="targetPoint" />
          </mxGeometry>
        </mxCell>
        <mxCell id="e8nvUrUcDjRh6I55UbsG-358" value="" style="endArrow=none;html=1;rounded=0;strokeColor=#0000FF;strokeWidth=1;" edge="1" parent="1">
          <mxGeometry width="50" height="50" relative="1" as="geometry">
            <mxPoint x="1290" y="920" as="sourcePoint" />
            <mxPoint x="1290" y="890" as="targetPoint" />
          </mxGeometry>
        </mxCell>
        <mxCell id="e8nvUrUcDjRh6I55UbsG-359" value="" style="endArrow=none;html=1;rounded=0;strokeColor=#0000FF;strokeWidth=1;" edge="1" parent="1">
          <mxGeometry width="50" height="50" relative="1" as="geometry">
            <mxPoint x="1430" y="920" as="sourcePoint" />
            <mxPoint x="1430" y="890" as="targetPoint" />
          </mxGeometry>
        </mxCell>
        <mxCell id="e8nvUrUcDjRh6I55UbsG-360" value="" style="endArrow=none;html=1;rounded=0;strokeColor=#0000FF;strokeWidth=1;" edge="1" parent="1">
          <mxGeometry width="50" height="50" relative="1" as="geometry">
            <mxPoint x="1360" y="920" as="sourcePoint" />
            <mxPoint x="1360" y="890" as="targetPoint" />
          </mxGeometry>
        </mxCell>
        <mxCell id="e8nvUrUcDjRh6I55UbsG-361" value="" style="endArrow=none;html=1;rounded=0;strokeColor=#0000FF;strokeWidth=1;" edge="1" parent="1">
          <mxGeometry width="50" height="50" relative="1" as="geometry">
            <mxPoint x="1300" y="880" as="sourcePoint" />
            <mxPoint x="1300" y="840" as="targetPoint" />
          </mxGeometry>
        </mxCell>
        <mxCell id="e8nvUrUcDjRh6I55UbsG-362" value="" style="endArrow=none;html=1;rounded=0;strokeColor=#0000FF;strokeWidth=1;" edge="1" parent="1">
          <mxGeometry width="50" height="50" relative="1" as="geometry">
            <mxPoint x="1380" y="880" as="sourcePoint" />
            <mxPoint x="1380" y="840" as="targetPoint" />
          </mxGeometry>
        </mxCell>
        <mxCell id="e8nvUrUcDjRh6I55UbsG-363" value="" style="endArrow=none;html=1;rounded=0;strokeColor=#0000FF;strokeWidth=1;" edge="1" parent="1">
          <mxGeometry width="50" height="50" relative="1" as="geometry">
            <mxPoint x="1460" y="880" as="sourcePoint" />
            <mxPoint x="1460" y="840" as="targetPoint" />
          </mxGeometry>
        </mxCell>
        <mxCell id="e8nvUrUcDjRh6I55UbsG-364" value="" style="endArrow=none;html=1;rounded=0;strokeColor=#0000FF;strokeWidth=1;exitX=0.75;exitY=0;exitDx=0;exitDy=0;entryX=0.75;entryY=1;entryDx=0;entryDy=0;" edge="1" parent="1">
          <mxGeometry width="50" height="50" relative="1" as="geometry">
            <mxPoint x="1460" y="1170" as="sourcePoint" />
            <mxPoint x="1460" y="1220" as="targetPoint" />
          </mxGeometry>
        </mxCell>
        <mxCell id="e8nvUrUcDjRh6I55UbsG-365" value="" style="endArrow=none;html=1;rounded=0;strokeColor=#0000FF;strokeWidth=1;exitX=0.75;exitY=0;exitDx=0;exitDy=0;entryX=0.75;entryY=1;entryDx=0;entryDy=0;" edge="1" parent="1">
          <mxGeometry width="50" height="50" relative="1" as="geometry">
            <mxPoint x="1260" y="1170" as="sourcePoint" />
            <mxPoint x="1260" y="1220" as="targetPoint" />
          </mxGeometry>
        </mxCell>
        <mxCell id="e8nvUrUcDjRh6I55UbsG-366" value="" style="endArrow=none;html=1;rounded=0;strokeColor=#0000FF;strokeWidth=1;exitX=0.75;exitY=0;exitDx=0;exitDy=0;entryX=0.75;entryY=1;entryDx=0;entryDy=0;" edge="1" parent="1">
          <mxGeometry width="50" height="50" relative="1" as="geometry">
            <mxPoint x="1300" y="1170" as="sourcePoint" />
            <mxPoint x="1300" y="1220" as="targetPoint" />
          </mxGeometry>
        </mxCell>
        <mxCell id="e8nvUrUcDjRh6I55UbsG-367" value="" style="endArrow=none;html=1;rounded=0;strokeColor=#0000FF;strokeWidth=1;exitX=0.75;exitY=0;exitDx=0;exitDy=0;entryX=0.75;entryY=1;entryDx=0;entryDy=0;" edge="1" parent="1">
          <mxGeometry width="50" height="50" relative="1" as="geometry">
            <mxPoint x="1340" y="1170" as="sourcePoint" />
            <mxPoint x="1340" y="1220" as="targetPoint" />
          </mxGeometry>
        </mxCell>
        <mxCell id="e8nvUrUcDjRh6I55UbsG-368" value="" style="endArrow=none;html=1;rounded=0;strokeColor=#0000FF;strokeWidth=1;exitX=0.75;exitY=0;exitDx=0;exitDy=0;entryX=0.75;entryY=1;entryDx=0;entryDy=0;" edge="1" parent="1">
          <mxGeometry width="50" height="50" relative="1" as="geometry">
            <mxPoint x="1380" y="1170" as="sourcePoint" />
            <mxPoint x="1380" y="1220" as="targetPoint" />
          </mxGeometry>
        </mxCell>
        <mxCell id="e8nvUrUcDjRh6I55UbsG-369" value="" style="endArrow=none;html=1;rounded=0;strokeColor=#0000FF;strokeWidth=1;exitX=0.75;exitY=0;exitDx=0;exitDy=0;entryX=0.75;entryY=1;entryDx=0;entryDy=0;" edge="1" parent="1">
          <mxGeometry width="50" height="50" relative="1" as="geometry">
            <mxPoint x="1420" y="1170" as="sourcePoint" />
            <mxPoint x="1420" y="1220" as="targetPoint" />
          </mxGeometry>
        </mxCell>
        <mxCell id="e8nvUrUcDjRh6I55UbsG-370" value="" style="endArrow=none;html=1;rounded=0;strokeColor=#0000FF;strokeWidth=1;exitX=0.75;exitY=0;exitDx=0;exitDy=0;entryX=0.75;entryY=1;entryDx=0;entryDy=0;" edge="1" parent="1">
          <mxGeometry width="50" height="50" relative="1" as="geometry">
            <mxPoint x="1500" y="1170" as="sourcePoint" />
            <mxPoint x="1500" y="1220" as="targetPoint" />
          </mxGeometry>
        </mxCell>
        <mxCell id="e8nvUrUcDjRh6I55UbsG-371" value="" style="endArrow=none;html=1;rounded=0;strokeColor=#0000FF;strokeWidth=1;exitX=0.75;exitY=0;exitDx=0;exitDy=0;entryX=0.75;entryY=1;entryDx=0;entryDy=0;" edge="1" parent="1">
          <mxGeometry width="50" height="50" relative="1" as="geometry">
            <mxPoint x="1150" y="1170" as="sourcePoint" />
            <mxPoint x="1150" y="1220" as="targetPoint" />
          </mxGeometry>
        </mxCell>
        <mxCell id="e8nvUrUcDjRh6I55UbsG-372" value="" style="endArrow=none;html=1;rounded=0;strokeColor=#0000FF;strokeWidth=1;exitX=0.75;exitY=0;exitDx=0;exitDy=0;entryX=0.75;entryY=1;entryDx=0;entryDy=0;" edge="1" parent="1">
          <mxGeometry width="50" height="50" relative="1" as="geometry">
            <mxPoint x="1200" y="1120" as="sourcePoint" />
            <mxPoint x="1200" y="1170" as="targetPoint" />
          </mxGeometry>
        </mxCell>
        <mxCell id="e8nvUrUcDjRh6I55UbsG-373" value="" style="endArrow=none;html=1;rounded=0;strokeColor=#0000FF;strokeWidth=1;exitX=0.75;exitY=0;exitDx=0;exitDy=0;entryX=0.75;entryY=1;entryDx=0;entryDy=0;" edge="1" parent="1">
          <mxGeometry width="50" height="50" relative="1" as="geometry">
            <mxPoint x="1360" y="1120" as="sourcePoint" />
            <mxPoint x="1360" y="1170" as="targetPoint" />
          </mxGeometry>
        </mxCell>
        <mxCell id="e8nvUrUcDjRh6I55UbsG-374" value="" style="endArrow=classic;startArrow=classic;html=1;rounded=0;strokeColor=#000000;strokeWidth=1;" edge="1" parent="1">
          <mxGeometry width="50" height="50" relative="1" as="geometry">
            <mxPoint x="1050" y="880" as="sourcePoint" />
            <mxPoint x="1050" y="840" as="targetPoint" />
          </mxGeometry>
        </mxCell>
        <mxCell id="e8nvUrUcDjRh6I55UbsG-375" value="300" style="text;html=1;align=center;verticalAlign=middle;resizable=0;points=[];autosize=1;strokeColor=none;fillColor=none;rotation=-90;" vertex="1" parent="1">
          <mxGeometry x="1040" y="845" width="40" height="30" as="geometry" />
        </mxCell>
        <mxCell id="e8nvUrUcDjRh6I55UbsG-376" value="" style="endArrow=none;html=1;rounded=0;strokeColor=#0000FF;strokeWidth=1;entryX=0.469;entryY=0.965;entryDx=0;entryDy=0;entryPerimeter=0;" edge="1" parent="1" target="e8nvUrUcDjRh6I55UbsG-339">
          <mxGeometry width="50" height="50" relative="1" as="geometry">
            <mxPoint x="1360" y="920" as="sourcePoint" />
            <mxPoint x="1340" y="1000" as="targetPoint" />
          </mxGeometry>
        </mxCell>
        <mxCell id="e8nvUrUcDjRh6I55UbsG-377" value="" style="endArrow=none;html=1;rounded=0;strokeColor=#0000FF;strokeWidth=1;" edge="1" parent="1">
          <mxGeometry width="50" height="50" relative="1" as="geometry">
            <mxPoint x="1290" y="920" as="sourcePoint" />
            <mxPoint x="1300" y="880" as="targetPoint" />
          </mxGeometry>
        </mxCell>
        <mxCell id="e8nvUrUcDjRh6I55UbsG-378" value="" style="endArrow=none;html=1;rounded=0;strokeColor=#0000FF;strokeWidth=1;entryX=0.704;entryY=1.027;entryDx=0;entryDy=0;entryPerimeter=0;" edge="1" parent="1" target="e8nvUrUcDjRh6I55UbsG-339">
          <mxGeometry width="50" height="50" relative="1" as="geometry">
            <mxPoint x="1430" y="920" as="sourcePoint" />
            <mxPoint x="1310" y="890" as="targetPoint" />
          </mxGeometry>
        </mxCell>
        <mxCell id="e8nvUrUcDjRh6I55UbsG-379" value="" style="endArrow=none;html=1;rounded=0;strokeColor=#FF0080;strokeWidth=2;" edge="1" parent="1">
          <mxGeometry width="50" height="50" relative="1" as="geometry">
            <mxPoint x="1530" y="950" as="sourcePoint" />
            <mxPoint x="1560" y="940" as="targetPoint" />
          </mxGeometry>
        </mxCell>
        <mxCell id="e8nvUrUcDjRh6I55UbsG-380" value="" style="endArrow=none;html=1;rounded=0;strokeColor=#FF0080;strokeWidth=2;" edge="1" parent="1">
          <mxGeometry width="50" height="50" relative="1" as="geometry">
            <mxPoint x="1530" y="990" as="sourcePoint" />
            <mxPoint x="1560" y="990" as="targetPoint" />
          </mxGeometry>
        </mxCell>
        <mxCell id="e8nvUrUcDjRh6I55UbsG-381" value="" style="endArrow=none;html=1;rounded=0;strokeColor=#FF0080;strokeWidth=2;" edge="1" parent="1">
          <mxGeometry width="50" height="50" relative="1" as="geometry">
            <mxPoint x="1530" y="1040" as="sourcePoint" />
            <mxPoint x="1560" y="1060" as="targetPoint" />
          </mxGeometry>
        </mxCell>
        <mxCell id="e8nvUrUcDjRh6I55UbsG-382" value="" style="endArrow=none;html=1;rounded=0;strokeColor=#FF0080;strokeWidth=2;" edge="1" parent="1">
          <mxGeometry width="50" height="50" relative="1" as="geometry">
            <mxPoint x="1530" y="1090" as="sourcePoint" />
            <mxPoint x="1560" y="1120" as="targetPoint" />
          </mxGeometry>
        </mxCell>
        <mxCell id="e8nvUrUcDjRh6I55UbsG-383" value="" style="endArrow=none;html=1;rounded=0;strokeColor=#FF0000;strokeWidth=2;" edge="1" parent="1">
          <mxGeometry width="50" height="50" relative="1" as="geometry">
            <mxPoint x="1680" y="1170" as="sourcePoint" />
            <mxPoint x="1680" y="880" as="targetPoint" />
          </mxGeometry>
        </mxCell>
        <mxCell id="e8nvUrUcDjRh6I55UbsG-384" value="" style="endArrow=none;html=1;rounded=0;strokeColor=#FF0000;strokeWidth=2;" edge="1" parent="1">
          <mxGeometry width="50" height="50" relative="1" as="geometry">
            <mxPoint x="2000" y="880" as="sourcePoint" />
            <mxPoint x="1680" y="880" as="targetPoint" />
          </mxGeometry>
        </mxCell>
        <mxCell id="e8nvUrUcDjRh6I55UbsG-385" value="" style="endArrow=none;html=1;rounded=0;strokeColor=#FF0000;strokeWidth=2;" edge="1" parent="1">
          <mxGeometry width="50" height="50" relative="1" as="geometry">
            <mxPoint x="1680" y="1166" as="sourcePoint" />
            <mxPoint x="2000" y="1166" as="targetPoint" />
          </mxGeometry>
        </mxCell>
        <mxCell id="e8nvUrUcDjRh6I55UbsG-386" value="" style="endArrow=none;html=1;rounded=0;strokeColor=#FF0000;strokeWidth=2;" edge="1" parent="1">
          <mxGeometry width="50" height="50" relative="1" as="geometry">
            <mxPoint x="2000" y="880" as="sourcePoint" />
            <mxPoint x="2000" y="1170" as="targetPoint" />
          </mxGeometry>
        </mxCell>
        <mxCell id="e8nvUrUcDjRh6I55UbsG-387" value="" style="endArrow=none;html=1;rounded=0;strokeColor=#FF0000;strokeWidth=2;" edge="1" parent="1">
          <mxGeometry width="50" height="50" relative="1" as="geometry">
            <mxPoint x="1680" y="920" as="sourcePoint" />
            <mxPoint x="2000" y="920" as="targetPoint" />
          </mxGeometry>
        </mxCell>
        <mxCell id="e8nvUrUcDjRh6I55UbsG-388" value="" style="endArrow=none;html=1;rounded=0;strokeColor=#FF0000;strokeWidth=2;" edge="1" parent="1">
          <mxGeometry width="50" height="50" relative="1" as="geometry">
            <mxPoint x="1680" y="960" as="sourcePoint" />
            <mxPoint x="2000" y="960" as="targetPoint" />
          </mxGeometry>
        </mxCell>
        <mxCell id="e8nvUrUcDjRh6I55UbsG-389" value="" style="endArrow=none;html=1;rounded=0;strokeColor=#FF0000;strokeWidth=2;" edge="1" parent="1">
          <mxGeometry width="50" height="50" relative="1" as="geometry">
            <mxPoint x="1680" y="1000" as="sourcePoint" />
            <mxPoint x="2000" y="1000" as="targetPoint" />
          </mxGeometry>
        </mxCell>
        <mxCell id="e8nvUrUcDjRh6I55UbsG-390" value="" style="endArrow=none;html=1;rounded=0;strokeColor=#FF0000;strokeWidth=2;" edge="1" parent="1">
          <mxGeometry width="50" height="50" relative="1" as="geometry">
            <mxPoint x="1680" y="1040" as="sourcePoint" />
            <mxPoint x="2000" y="1040" as="targetPoint" />
          </mxGeometry>
        </mxCell>
        <mxCell id="e8nvUrUcDjRh6I55UbsG-391" value="" style="endArrow=none;html=1;rounded=0;strokeColor=#FF0000;strokeWidth=2;" edge="1" parent="1">
          <mxGeometry width="50" height="50" relative="1" as="geometry">
            <mxPoint x="1680" y="1080" as="sourcePoint" />
            <mxPoint x="2000" y="1080" as="targetPoint" />
          </mxGeometry>
        </mxCell>
        <mxCell id="e8nvUrUcDjRh6I55UbsG-392" value="" style="endArrow=none;html=1;rounded=0;strokeColor=#FF0000;strokeWidth=2;" edge="1" parent="1">
          <mxGeometry width="50" height="50" relative="1" as="geometry">
            <mxPoint x="1680" y="1120" as="sourcePoint" />
            <mxPoint x="2000" y="1120" as="targetPoint" />
          </mxGeometry>
        </mxCell>
        <mxCell id="e8nvUrUcDjRh6I55UbsG-393" value="" style="endArrow=none;html=1;rounded=0;strokeColor=#FF0000;strokeWidth=2;" edge="1" parent="1">
          <mxGeometry width="50" height="50" relative="1" as="geometry">
            <mxPoint x="1840" y="880" as="sourcePoint" />
            <mxPoint x="1840" y="1170" as="targetPoint" />
          </mxGeometry>
        </mxCell>
        <mxCell id="e8nvUrUcDjRh6I55UbsG-394" value="" style="endArrow=none;html=1;rounded=0;strokeColor=#FF0000;strokeWidth=2;" edge="1" parent="1">
          <mxGeometry width="50" height="50" relative="1" as="geometry">
            <mxPoint x="1760" y="880" as="sourcePoint" />
            <mxPoint x="1760" y="1170" as="targetPoint" />
          </mxGeometry>
        </mxCell>
        <mxCell id="e8nvUrUcDjRh6I55UbsG-395" value="" style="endArrow=none;html=1;rounded=0;strokeColor=#FF0000;strokeWidth=2;" edge="1" parent="1">
          <mxGeometry width="50" height="50" relative="1" as="geometry">
            <mxPoint x="1920" y="880" as="sourcePoint" />
            <mxPoint x="1920" y="1170" as="targetPoint" />
          </mxGeometry>
        </mxCell>
        <mxCell id="e8nvUrUcDjRh6I55UbsG-396" value="&lt;font color=&quot;#9933ff&quot;&gt;2860x4&lt;/font&gt;" style="text;html=1;align=center;verticalAlign=middle;resizable=0;points=[];autosize=1;strokeColor=none;fillColor=none;" vertex="1" parent="1">
          <mxGeometry x="1081" y="1271" width="60" height="30" as="geometry" />
        </mxCell>
        <mxCell id="e8nvUrUcDjRh6I55UbsG-397" value="" style="endArrow=none;html=1;rounded=0;strokeColor=#9933FF;strokeWidth=1;fontColor=#9933FF;" edge="1" parent="1">
          <mxGeometry width="50" height="50" relative="1" as="geometry">
            <mxPoint x="1150" y="1260" as="sourcePoint" />
            <mxPoint x="1210" y="1260" as="targetPoint" />
          </mxGeometry>
        </mxCell>
        <mxCell id="e8nvUrUcDjRh6I55UbsG-398" value="" style="endArrow=none;html=1;rounded=0;strokeColor=#9933FF;strokeWidth=1;fontColor=#9933FF;" edge="1" parent="1">
          <mxGeometry width="50" height="50" relative="1" as="geometry">
            <mxPoint x="1150" y="1310" as="sourcePoint" />
            <mxPoint x="1210" y="1310" as="targetPoint" />
          </mxGeometry>
        </mxCell>
        <mxCell id="e8nvUrUcDjRh6I55UbsG-399" value="" style="endArrow=none;html=1;rounded=0;strokeColor=#9933FF;strokeWidth=1;fontColor=#9933FF;" edge="1" parent="1">
          <mxGeometry width="50" height="50" relative="1" as="geometry">
            <mxPoint x="1160" y="1300" as="sourcePoint" />
            <mxPoint x="1200" y="1300" as="targetPoint" />
          </mxGeometry>
        </mxCell>
        <mxCell id="e8nvUrUcDjRh6I55UbsG-400" value="" style="endArrow=none;html=1;rounded=0;strokeColor=#9933FF;strokeWidth=1;fontColor=#9933FF;" edge="1" parent="1">
          <mxGeometry width="50" height="50" relative="1" as="geometry">
            <mxPoint x="1160" y="1270" as="sourcePoint" />
            <mxPoint x="1200" y="1270" as="targetPoint" />
          </mxGeometry>
        </mxCell>
        <mxCell id="e8nvUrUcDjRh6I55UbsG-401" value="" style="endArrow=none;html=1;rounded=0;strokeColor=#CCCCCC;strokeWidth=1;fontColor=#9933FF;" edge="1" parent="1">
          <mxGeometry width="50" height="50" relative="1" as="geometry">
            <mxPoint x="1150" y="1310" as="sourcePoint" />
            <mxPoint x="1150" y="1260" as="targetPoint" />
          </mxGeometry>
        </mxCell>
        <mxCell id="e8nvUrUcDjRh6I55UbsG-402" value="" style="endArrow=none;html=1;rounded=0;strokeColor=#CCCCCC;strokeWidth=1;fontColor=#9933FF;" edge="1" parent="1">
          <mxGeometry width="50" height="50" relative="1" as="geometry">
            <mxPoint x="1160" y="1300" as="sourcePoint" />
            <mxPoint x="1160" y="1270" as="targetPoint" />
          </mxGeometry>
        </mxCell>
        <mxCell id="e8nvUrUcDjRh6I55UbsG-403" value="" style="endArrow=none;html=1;rounded=0;strokeColor=#CCCCCC;strokeWidth=1;fontColor=#9933FF;" edge="1" parent="1">
          <mxGeometry width="50" height="50" relative="1" as="geometry">
            <mxPoint x="1200" y="1300" as="sourcePoint" />
            <mxPoint x="1200" y="1270" as="targetPoint" />
          </mxGeometry>
        </mxCell>
        <mxCell id="e8nvUrUcDjRh6I55UbsG-404" value="" style="endArrow=none;html=1;rounded=0;strokeColor=#CCCCCC;strokeWidth=1;fontColor=#9933FF;" edge="1" parent="1">
          <mxGeometry width="50" height="50" relative="1" as="geometry">
            <mxPoint x="1210" y="1310" as="sourcePoint" />
            <mxPoint x="1210" y="1260" as="targetPoint" />
          </mxGeometry>
        </mxCell>
        <mxCell id="e8nvUrUcDjRh6I55UbsG-405" value="" style="endArrow=none;html=1;rounded=0;strokeColor=#CCCCCC;strokeWidth=1;fontColor=#9933FF;" edge="1" parent="1">
          <mxGeometry width="50" height="50" relative="1" as="geometry">
            <mxPoint x="1215" y="1310" as="sourcePoint" />
            <mxPoint x="1215" y="1260" as="targetPoint" />
          </mxGeometry>
        </mxCell>
        <mxCell id="e8nvUrUcDjRh6I55UbsG-406" value="" style="endArrow=none;html=1;rounded=0;strokeColor=#CCCCCC;strokeWidth=1;fontColor=#9933FF;" edge="1" parent="1">
          <mxGeometry width="50" height="50" relative="1" as="geometry">
            <mxPoint x="1210" y="1260" as="sourcePoint" />
            <mxPoint x="1200" y="1270" as="targetPoint" />
          </mxGeometry>
        </mxCell>
        <mxCell id="e8nvUrUcDjRh6I55UbsG-407" value="" style="endArrow=none;html=1;rounded=0;strokeColor=#CCCCCC;strokeWidth=1;fontColor=#9933FF;" edge="1" parent="1">
          <mxGeometry width="50" height="50" relative="1" as="geometry">
            <mxPoint x="1160" y="1300" as="sourcePoint" />
            <mxPoint x="1150" y="1310" as="targetPoint" />
          </mxGeometry>
        </mxCell>
        <mxCell id="e8nvUrUcDjRh6I55UbsG-408" value="" style="endArrow=none;html=1;rounded=0;strokeColor=#CCCCCC;strokeWidth=1;fontColor=#9933FF;" edge="1" parent="1">
          <mxGeometry width="50" height="50" relative="1" as="geometry">
            <mxPoint x="1160" y="1270" as="sourcePoint" />
            <mxPoint x="1150" y="1260" as="targetPoint" />
          </mxGeometry>
        </mxCell>
        <mxCell id="e8nvUrUcDjRh6I55UbsG-409" value="" style="endArrow=none;html=1;rounded=0;strokeColor=#CCCCCC;strokeWidth=1;fontColor=#9933FF;" edge="1" parent="1">
          <mxGeometry width="50" height="50" relative="1" as="geometry">
            <mxPoint x="1210" y="1310" as="sourcePoint" />
            <mxPoint x="1200" y="1300" as="targetPoint" />
          </mxGeometry>
        </mxCell>
      </root>
    </mxGraphModel>
  </diagram>
</mxfile>
